<svg version="1.1" id="Layer_1" xmlns="http://www.w3.org/2000/svg" xmlns:xlink="http://www.w3.org/1999/xlink" x="0px" y="0px"
	 width="100%" viewBox="0 0 1075 271" enable-background="new 0 0 1075 271" xml:space="preserve">
<path fill="#FFFFFF" opacity="1.000000" stroke="none"
	d="
M1076.000000,173.999969
	C1076.000000,206.656601 1076.000000,239.313187 1076.000000,271.984894
	C717.787170,271.984894 359.574371,271.984894 1.000000,271.984894
	C1.000000,203.975525 1.000000,135.950394 1.323894,67.553207
	C3.651303,69.046944 5.654819,70.912750 7.871508,72.873398
	C8.528615,73.077599 8.972548,73.186951 9.734169,73.584183
	C12.756518,73.371216 16.229733,75.780579 18.350349,71.871826
	C24.446993,68.685684 30.201077,65.398727 36.081573,62.407654
	C37.547401,63.950478 38.886818,65.197418 40.217323,66.556618
	C40.208405,66.668884 40.260551,66.888000 40.221916,67.195816
	C41.532223,68.815765 42.881161,70.127899 44.218681,71.553314
	C44.207260,71.666603 44.260551,71.888000 44.221916,72.195816
	C45.532223,73.815765 46.881161,75.127899 48.216972,76.556847
	C48.203846,76.673660 48.263756,76.900993 48.228210,77.217377
	C51.092934,80.039024 53.993202,82.544289 56.936680,85.365540
	C56.950787,86.104767 56.921684,86.528000 56.526085,86.970840
	C54.785275,86.619965 53.410965,86.249489 51.885845,85.588058
	C51.196129,85.410706 50.657227,85.524315 50.118324,85.637924
	C50.731346,86.463371 51.344368,87.288811 52.104469,88.436996
	C55.308979,92.810272 58.149601,97.060471 61.571106,100.775711
	C62.464520,101.745834 65.165833,101.050987 67.394066,101.062401
	C69.294197,99.984459 70.837090,98.964935 72.767159,97.689575
	C72.846588,98.911987 73.178978,99.889816 72.887947,100.138718
	C52.135010,117.888191 29.920534,133.468369 4.399037,145.257187
	C11.554230,150.261353 18.474798,151.571243 25.838911,148.586197
	C48.430260,139.428726 70.946213,130.085403 93.525238,120.897293
	C97.665413,119.212517 101.800507,119.179848 105.617180,122.096909
	C109.374893,124.968933 113.280922,127.647934 117.019112,130.544266
	C127.328514,138.531937 137.391373,146.997192 151.085541,148.467697
	C152.867142,148.659027 155.501297,148.563065 156.385895,147.486786
	C157.452820,146.188644 157.912750,143.277100 157.168503,141.806152
	C154.548996,136.628967 152.116989,130.947937 148.111649,126.970993
	C141.045425,119.954834 133.374985,113.277298 125.035347,107.883842
	C115.251282,101.556221 114.344856,93.343361 116.274200,83.252914
	C117.897476,74.763130 118.808220,66.135918 119.993614,57.563904
	C121.291298,48.179871 122.486588,38.781418 123.828499,29.403839
	C125.285980,19.218607 126.792404,9.064183 118.000000,1.000000
	C437.212311,1.000000 756.424622,1.000000 1076.000000,1.000000
	C1076.000000,55.691044 1076.000000,110.382889 1075.675781,165.446594
	C1068.719116,159.869812 1062.330566,153.612091 1055.349731,148.105270
	C1051.952271,145.425171 1047.574707,143.179398 1043.393066,142.633606
	C1041.218140,142.349716 1037.347168,145.723099 1036.321411,148.278854
	C1034.970703,151.644424 1035.665283,155.750031 1039.087402,158.618896
	C1046.143799,164.534393 1053.025391,170.659515 1060.120117,176.527618
	C1063.328613,179.181396 1067.101929,180.248886 1071.006836,177.950089
	C1072.818481,176.883575 1074.344482,175.331757 1076.000000,173.999969
M679.511292,145.992035
	C673.800354,149.412216 668.005981,152.702225 662.405701,156.294846
	C658.119080,159.044769 656.919739,164.616547 659.342285,168.787384
	C661.630493,172.726807 667.804993,174.428986 671.977051,171.976608
	C680.244202,167.117020 688.445007,162.140366 696.587463,157.074265
	C701.240723,154.179062 702.645508,148.246506 699.973694,143.880569
	C697.623779,140.040604 691.505676,139.014465 686.863342,141.662445
	C684.603455,142.951477 682.322144,144.202896 679.511292,145.992035
M629.656494,176.068848
	C623.859802,179.696640 617.951904,183.161163 612.305847,187.009918
	C608.575989,189.552505 607.760803,195.300781 610.072327,199.224304
	C612.104004,202.672867 617.064026,204.580551 620.911377,202.431107
	C630.271179,197.201813 639.473450,191.662445 648.491577,185.862991
	C652.288086,183.421478 652.879211,178.430191 650.759705,174.450333
	C648.884277,170.928726 644.117798,168.885773 640.105774,170.523346
	C636.699097,171.913818 633.615417,174.095261 629.656494,176.068848
M1015.309937,120.062843
	C1010.124268,117.353767 1004.993591,114.532021 999.736755,111.968864
	C994.940918,109.630432 990.351929,111.443222 987.890991,116.360352
	C985.603333,120.931236 987.020508,125.557114 991.397827,128.086121
	C999.555969,132.799500 1007.688782,137.556961 1015.830200,142.299240
	C1020.503174,145.021179 1025.945190,143.907379 1028.723511,139.654144
	C1031.559937,135.311691 1030.301880,130.017593 1025.692383,126.941231
	C1022.446716,124.774948 1019.192505,122.621384 1015.309937,120.062843
M580.984741,225.515305
	C586.381348,222.474838 591.874390,219.591187 597.145630,216.346939
	C601.811646,213.475143 603.089783,208.496033 600.678650,204.263474
	C598.388733,200.243622 593.291870,198.600281 588.660706,200.868515
	C580.011536,205.104660 571.442322,209.513840 562.954651,214.065079
	C558.912415,216.232544 556.949951,219.909866 558.284485,224.453522
	C559.602295,228.940384 562.572876,232.238571 567.709534,230.887222
	C572.057312,229.743393 576.147766,227.621231 580.984741,225.515305
M267.986664,217.928253
	C267.484863,217.278305 267.118988,216.391083 266.460815,216.014130
	C257.264526,210.746918 248.147171,205.320724 238.749725,200.435028
	C234.298660,198.120926 229.239365,200.656311 226.887604,205.420731
	C224.973465,209.298553 226.554993,214.544708 230.654648,216.885635
	C238.575928,221.408783 246.651978,225.661499 254.560425,230.206299
	C258.679871,232.573654 262.608887,232.997910 266.454773,229.987915
	C270.477417,226.839569 269.278320,222.729172 267.986664,217.928253
M719.636047,124.069336
	C717.751770,125.049034 715.827209,125.959213 713.991089,127.022095
	C709.408203,129.674927 707.683594,134.682831 709.709473,139.234619
	C711.625916,143.540344 717.031067,145.701447 721.886108,143.505615
	C730.642639,139.545151 739.283020,135.314529 747.859131,130.973862
	C752.426453,128.662247 754.472778,123.193260 752.702637,119.246017
	C750.566467,114.482574 745.023987,112.391754 739.820679,114.715858
	C733.274536,117.639778 726.853333,120.843399 719.636047,124.069336
M519.121582,252.938171
	C526.985535,249.852463 534.860107,246.793549 542.709656,243.671707
	C548.029785,241.555847 551.098083,236.517578 549.713074,232.335556
	C547.886353,226.819565 542.608337,224.110229 536.613770,226.255783
	C527.599731,229.482071 518.737671,233.134933 509.826141,236.645004
	C505.297150,238.428925 504.687408,242.238235 505.015686,246.418991
	C505.297699,250.010284 506.759094,252.866058 510.725433,253.230011
	C513.221497,253.459061 515.772278,253.092514 519.121582,252.938171
M321.977509,240.894058
	C319.937927,239.396149 318.090973,237.438339 315.822083,236.487793
	C309.398041,233.796524 302.827820,231.442764 296.261353,229.107498
	C292.923828,227.920547 289.445648,226.181366 286.075836,226.276596
	C282.005493,226.391647 278.755676,229.179230 278.069885,233.610550
	C277.381561,238.058121 278.624176,241.875168 283.235260,243.630615
	C292.318420,247.088593 301.336853,250.781097 310.598328,253.687439
	C319.266357,256.407562 324.674316,250.506424 321.977509,240.894058
M781.390076,117.922173
	C787.556152,115.949303 793.670410,113.789673 799.903320,112.057449
	C805.828247,110.410835 808.309143,106.351021 806.978882,99.565605
	C806.259216,95.894821 800.762512,92.790489 796.172241,94.123222
	C786.682739,96.878365 777.264404,99.905602 767.918823,103.117790
	C763.309265,104.702187 760.790466,110.410263 762.260193,114.686951
	C763.920410,119.517601 769.070740,121.991005 774.200928,120.357674
	C776.357239,119.671165 778.468689,118.843979 781.390076,117.922173
M485.617554,262.101013
	C491.775879,261.231079 495.774750,257.000885 494.959473,252.218689
	C494.037689,246.811707 489.521393,243.122391 484.526581,244.056427
	C474.451874,245.940384 464.406006,247.982742 454.367310,250.052338
	C451.064728,250.733215 447.324280,256.959808 448.080048,260.193481
	C449.070892,264.433044 454.450134,268.623749 458.138214,267.904999
	C467.075836,266.163086 475.999329,264.348785 485.617554,262.101013
M963.751709,115.948509
	C969.903381,118.258423 976.518616,116.439064 977.917480,112.052544
	C979.905334,105.819191 977.210266,101.352600 969.773315,98.948341
	C961.281006,96.202919 952.774536,93.487885 944.202332,91.008171
	C939.041199,89.515198 934.380493,92.137650 933.124146,96.771667
	C931.744141,101.861595 934.119873,106.252151 939.356018,107.967834
	C947.229614,110.547699 955.139465,113.017014 963.751709,115.948509
M340.926056,244.005432
	C336.271393,245.092133 333.326050,247.809128 333.028473,252.744598
	C332.748566,257.387207 335.554810,260.729797 339.482147,261.597412
	C349.651794,263.844025 359.971313,265.516846 370.301636,266.885773
	C375.210571,267.536255 379.321472,263.701141 379.928650,259.156799
	C380.422485,255.461060 377.316681,251.278030 372.895813,249.963776
	C370.577484,249.274551 368.176147,248.842178 365.792847,248.398132
	C357.790100,246.907043 349.778595,245.462845 340.926056,244.005432
M862.654663,97.876732
	C862.725769,94.137276 863.874023,89.915848 862.491943,86.826599
	C861.559265,84.741951 856.962952,83.051201 854.169922,83.271278
	C844.769897,84.011978 835.447876,85.719727 826.087036,86.991188
	C821.050842,87.675232 817.646545,91.982773 818.001587,97.407555
	C818.322876,102.315758 821.470947,105.393852 826.965027,104.898788
	C836.056519,104.079559 845.112976,102.761833 854.134277,101.337868
	C856.857178,100.908066 859.414795,99.431366 862.654663,97.876732
M884.615479,100.000305
	C886.711182,100.333153 888.796570,100.771133 890.904541,100.979713
	C898.086182,101.690353 905.280945,102.270287 912.460449,103.000679
	C916.383240,103.399750 921.384644,99.950287 921.987183,96.250282
	C922.874084,90.804039 920.545227,86.125458 916.134155,85.157234
	C913.112854,84.494072 909.978394,84.322800 906.886719,84.008888
	C900.201538,83.330109 893.495056,82.832520 886.828247,82.009827
	C881.524231,81.355301 875.942932,85.312775 875.087524,90.688828
	C874.410278,94.945305 878.773193,99.637985 884.615479,100.000305
M392.454651,266.968109
	C397.481964,272.261444 404.336853,269.837341 410.266022,270.724579
	C416.342285,271.633850 422.758606,269.970947 429.007935,270.133270
	C432.882843,270.233856 435.630432,268.167572 436.484283,265.559998
	C437.386993,262.803192 436.843536,258.884705 435.460754,256.243927
	C433.776276,253.027100 430.263916,252.000748 426.196594,252.232407
	C418.996002,252.642517 411.731628,252.592453 404.532715,252.130539
	C400.050079,251.842926 395.599091,251.809113 392.615692,255.175323
	C389.841095,258.305969 389.507019,262.481171 392.454651,266.968109
M213.983994,182.507324
	C211.138474,180.330917 208.307785,178.134766 205.443848,175.982864
	C201.368408,172.920670 197.216736,174.069763 193.903519,176.834961
	C190.888855,179.350983 189.343216,183.639099 192.141022,186.868332
	C196.096725,191.433990 201.085464,195.101456 205.607635,199.180557
	C208.934708,202.181686 213.039398,201.992462 215.974335,199.739426
	C218.141479,198.075760 219.997299,194.173462 219.664062,191.566071
	C219.278091,188.546066 216.343613,185.851791 213.983994,182.507324
z"/>
<path fill="#17B59D" opacity="1.000000" stroke="none"
	d="
M9.416481,73.296310
	C8.972548,73.186951 8.528615,73.077599 7.966795,72.431404
	C6.898968,68.877502 5.949028,65.860435 5.125135,62.585327
	C5.435741,62.276367 5.620300,62.225449 5.930791,62.539001
	C10.225686,65.521904 8.533019,60.582535 10.171665,59.549347
	C10.456878,59.259212 10.632440,59.216816 10.935572,59.545067
	C16.081047,61.880760 16.607836,57.705914 18.170851,54.549484
	C18.456610,54.259327 18.632273,54.216885 18.938747,54.549507
	C22.997683,55.879429 24.567011,54.575939 24.850092,50.184685
	C25.027056,49.038059 24.953671,48.037926 25.302193,47.015129
	C26.547644,46.386528 27.371185,45.780586 28.391977,45.140572
	C28.859915,45.161552 29.092045,45.287582 29.705227,45.643425
	C31.090902,44.853748 32.537235,44.076408 32.946079,42.929291
	C35.877579,34.704212 38.598164,26.403963 41.766781,18.117165
	C49.575668,22.017639 51.079304,25.094244 49.013344,33.146954
	C47.452000,39.232807 45.577232,45.238255 43.891712,51.106243
	C54.128483,56.237839 64.001564,61.187119 74.381950,66.390709
	C72.800102,63.936947 71.397278,61.760891 69.952118,59.519157
	C73.067986,60.064041 75.823433,60.535549 78.574928,61.029041
	C86.266411,62.408539 89.888947,67.279594 89.038383,75.012825
	C88.973915,75.598938 89.243652,76.221817 89.460495,77.370193
	C90.508736,76.492439 91.548370,76.049828 91.845772,75.309174
	C96.922722,62.665417 102.511139,50.181923 106.735504,37.254211
	C110.601364,25.423603 112.971024,13.104080 116.000000,1.000000
	C116.444443,1.000000 116.888893,1.000000 117.666672,1.000000
	C126.792404,9.064183 125.285980,19.218607 123.828499,29.403839
	C122.486588,38.781418 121.291298,48.179871 119.993614,57.563904
	C118.808220,66.135918 117.897476,74.763130 116.274200,83.252914
	C114.344856,93.343361 115.251282,101.556221 125.035347,107.883842
	C133.374985,113.277298 141.045425,119.954834 148.111649,126.970993
	C152.116989,130.947937 154.548996,136.628967 157.168503,141.806152
	C157.912750,143.277100 157.452820,146.188644 156.385895,147.486786
	C155.501297,148.563065 152.867142,148.659027 151.085541,148.467697
	C137.391373,146.997192 127.328514,138.531937 117.019112,130.544266
	C113.280922,127.647934 109.374893,124.968933 105.617180,122.096909
	C101.800507,119.179848 97.665413,119.212517 93.525238,120.897293
	C70.946213,130.085403 48.430260,139.428726 25.838911,148.586197
	C18.474798,151.571243 11.554230,150.261353 4.399037,145.257187
	C29.920534,133.468369 52.135010,117.888191 72.887947,100.138718
	C73.178978,99.889816 72.846588,98.911987 72.767159,97.689575
	C70.837090,98.964935 69.294197,99.984459 67.330719,100.705963
	C63.311611,97.337151 59.713100,94.266342 56.114590,91.195534
	C56.696251,90.912758 57.277912,90.629982 57.859570,90.347198
	C57.537239,89.215218 57.214912,88.083229 56.892582,86.951241
	C56.921684,86.528000 56.950787,86.104767 57.222267,85.141891
	C57.564182,81.629646 52.567379,76.299423 49.577419,76.266075
	C49.141949,76.261223 48.701759,76.678856 48.263756,76.900993
	C48.263756,76.900993 48.203846,76.673660 48.456093,76.160431
	C49.225578,72.027992 48.331116,70.079056 44.260551,71.888000
	C44.260551,71.888000 44.207260,71.666603 44.457802,71.156906
	C45.225578,67.027992 44.331116,65.079056 40.260551,66.888000
	C40.260551,66.888000 40.208405,66.668884 40.450768,66.186066
	C40.105335,64.003761 39.517540,62.304276 38.929749,60.604790
	C37.938221,61.107117 36.946690,61.609444 35.955158,62.111771
	C30.201077,65.398727 24.446993,68.685684 17.884418,71.623695
	C14.522779,71.948601 11.969630,72.622459 9.416481,73.296310
z"/>
<path fill="#FFFFFF" opacity="1.000000" stroke="none"
	d="
M115.531342,1.000000
	C112.971024,13.104080 110.601364,25.423603 106.735504,37.254211
	C102.511139,50.181923 96.922722,62.665417 91.845772,75.309174
	C91.548370,76.049828 90.508736,76.492439 89.460495,77.370193
	C89.243652,76.221817 88.973915,75.598938 89.038383,75.012825
	C89.888947,67.279594 86.266411,62.408539 78.574928,61.029041
	C75.823433,60.535549 73.067986,60.064041 69.952118,59.519157
	C71.397278,61.760891 72.800102,63.936947 74.381950,66.390709
	C64.001564,61.187119 54.128483,56.237839 43.891712,51.106243
	C45.577232,45.238255 47.452000,39.232807 49.013344,33.146954
	C51.079304,25.094244 49.575668,22.017639 41.587509,17.847889
	C40.311073,17.030931 39.594959,16.472830 38.474895,15.599908
	C35.311996,25.886059 32.298809,35.685326 29.285622,45.484592
	C29.092045,45.287582 28.859915,45.161552 28.098518,45.034740
	C26.254862,44.983749 24.901913,45.004524 23.548965,45.025299
	C23.992739,45.696129 24.436512,46.366962 24.880285,47.037792
	C24.953671,48.037926 25.027056,49.038059 24.555130,50.312172
	C22.275858,51.782249 20.541897,52.978344 18.807936,54.174442
	C18.632273,54.216885 18.456610,54.259327 17.821693,54.640442
	C15.177630,56.377548 12.992815,57.775982 10.808001,59.174419
	C10.632440,59.216816 10.456878,59.259212 9.858170,59.637550
	C8.224968,60.707169 7.014913,61.440849 5.804858,62.174530
	C5.620300,62.225449 5.435741,62.276367 4.795273,62.656570
	C3.226243,63.657242 2.113122,64.328621 1.000000,65.000000
	C1.000000,43.718929 1.000000,22.437859 1.000000,1.000000
	C39.020760,1.000000 77.041725,1.000000 115.531342,1.000000
z"/>
<path fill="#17B59D" opacity="1.000000" stroke="none"
	d="
M1076.000000,173.555817
	C1074.344482,175.331757 1072.818481,176.883575 1071.006836,177.950089
	C1067.101929,180.248886 1063.328613,179.181396 1060.120117,176.527618
	C1053.025391,170.659515 1046.143799,164.534393 1039.087402,158.618896
	C1035.665283,155.750031 1034.970703,151.644424 1036.321411,148.278854
	C1037.347168,145.723099 1041.218140,142.349716 1043.393066,142.633606
	C1047.574707,143.179398 1051.952271,145.425171 1055.349731,148.105270
	C1062.330566,153.612091 1068.719116,159.869812 1075.675781,165.909210
	C1076.000000,168.370560 1076.000000,170.741104 1076.000000,173.555817
z"/>
<path fill="#17B59D" opacity="1.000000" stroke="none"
	d="
M1.000000,65.333328
	C2.113122,64.328621 3.226243,63.657242 4.669226,62.914612
	C5.949028,65.860435 6.898968,68.877502 7.753622,72.336563
	C5.654819,70.912750 3.651303,69.046944 1.323894,67.090576
	C1.000000,66.555557 1.000000,66.111107 1.000000,65.333328
z"/>
<path fill="#17B59D" opacity="1.000000" stroke="none"
	d="
M679.780884,145.731689
	C682.322144,144.202896 684.603455,142.951477 686.863342,141.662445
	C691.505676,139.014465 697.623779,140.040604 699.973694,143.880569
	C702.645508,148.246506 701.240723,154.179062 696.587463,157.074265
	C688.445007,162.140366 680.244202,167.117020 671.977051,171.976608
	C667.804993,174.428986 661.630493,172.726807 659.342285,168.787384
	C656.919739,164.616547 658.119080,159.044769 662.405701,156.294846
	C668.005981,152.702225 673.800354,149.412216 679.780884,145.731689
z"/>
<path fill="#17B59D" opacity="1.000000" stroke="none"
	d="
M630.022644,175.997772
	C633.615417,174.095261 636.699097,171.913818 640.105774,170.523346
	C644.117798,168.885773 648.884277,170.928726 650.759705,174.450333
	C652.879211,178.430191 652.288086,183.421478 648.491577,185.862991
	C639.473450,191.662445 630.271179,197.201813 620.911377,202.431107
	C617.064026,204.580551 612.104004,202.672867 610.072327,199.224304
	C607.760803,195.300781 608.575989,189.552505 612.305847,187.009918
	C617.951904,183.161163 623.859802,179.696640 630.022644,175.997772
z"/>
<path fill="#17B59D" opacity="1.000000" stroke="none"
	d="
M1015.625977,120.262497
	C1019.192505,122.621384 1022.446716,124.774948 1025.692383,126.941231
	C1030.301880,130.017593 1031.559937,135.311691 1028.723511,139.654144
	C1025.945190,143.907379 1020.503174,145.021179 1015.830200,142.299240
	C1007.688782,137.556961 999.555969,132.799500 991.397827,128.086121
	C987.020508,125.557114 985.603333,120.931236 987.890991,116.360352
	C990.351929,111.443222 994.940918,109.630432 999.736755,111.968864
	C1004.993591,114.532021 1010.124268,117.353767 1015.625977,120.262497
z"/>
<path fill="#17B59D" opacity="1.000000" stroke="none"
	d="
M580.668457,225.723663
	C576.147766,227.621231 572.057312,229.743393 567.709534,230.887222
	C562.572876,232.238571 559.602295,228.940384 558.284485,224.453522
	C556.949951,219.909866 558.912415,216.232544 562.954651,214.065079
	C571.442322,209.513840 580.011536,205.104660 588.660706,200.868515
	C593.291870,198.600281 598.388733,200.243622 600.678650,204.263474
	C603.089783,208.496033 601.811646,213.475143 597.145630,216.346939
	C591.874390,219.591187 586.381348,222.474838 580.668457,225.723663
z"/>
<path fill="#17B59D" opacity="1.000000" stroke="none"
	d="
M268.105377,218.318069
	C269.278320,222.729172 270.477417,226.839569 266.454773,229.987915
	C262.608887,232.997910 258.679871,232.573654 254.560425,230.206299
	C246.651978,225.661499 238.575928,221.408783 230.654648,216.885635
	C226.554993,214.544708 224.973465,209.298553 226.887604,205.420731
	C229.239365,200.656311 234.298660,198.120926 238.749725,200.435028
	C248.147171,205.320724 257.264526,210.746918 266.460815,216.014130
	C267.118988,216.391083 267.484863,217.278305 268.105377,218.318069
z"/>
<path fill="#17B59D" opacity="1.000000" stroke="none"
	d="
M720.007080,123.997833
	C726.853333,120.843399 733.274536,117.639778 739.820679,114.715858
	C745.023987,112.391754 750.566467,114.482574 752.702637,119.246017
	C754.472778,123.193260 752.426453,128.662247 747.859131,130.973862
	C739.283020,135.314529 730.642639,139.545151 721.886108,143.505615
	C717.031067,145.701447 711.625916,143.540344 709.709473,139.234619
	C707.683594,134.682831 709.408203,129.674927 713.991089,127.022095
	C715.827209,125.959213 717.751770,125.049034 720.007080,123.997833
z"/>
<path fill="#17B59D" opacity="1.000000" stroke="none"
	d="
M518.710083,252.965668
	C515.772278,253.092514 513.221497,253.459061 510.725433,253.230011
	C506.759094,252.866058 505.297699,250.010284 505.015686,246.418991
	C504.687408,242.238235 505.297150,238.428925 509.826141,236.645004
	C518.737671,233.134933 527.599731,229.482071 536.613770,226.255783
	C542.608337,224.110229 547.886353,226.819565 549.713074,232.335556
	C551.098083,236.517578 548.029785,241.555847 542.709656,243.671707
	C534.860107,246.793549 526.985535,249.852463 518.710083,252.965668
z"/>
<path fill="#17B59D" opacity="1.000000" stroke="none"
	d="
M322.087524,241.281250
	C324.674316,250.506424 319.266357,256.407562 310.598328,253.687439
	C301.336853,250.781097 292.318420,247.088593 283.235260,243.630615
	C278.624176,241.875168 277.381561,238.058121 278.069885,233.610550
	C278.755676,229.179230 282.005493,226.391647 286.075836,226.276596
	C289.445648,226.181366 292.923828,227.920547 296.261353,229.107498
	C302.827820,231.442764 309.398041,233.796524 315.822083,236.487793
	C318.090973,237.438339 319.937927,239.396149 322.087524,241.281250
z"/>
<path fill="#17B59D" opacity="1.000000" stroke="none"
	d="
M780.995300,118.001465
	C778.468689,118.843979 776.357239,119.671165 774.200928,120.357674
	C769.070740,121.991005 763.920410,119.517601 762.260193,114.686951
	C760.790466,110.410263 763.309265,104.702187 767.918823,103.117790
	C777.264404,99.905602 786.682739,96.878365 796.172241,94.123222
	C800.762512,92.790489 806.259216,95.894821 806.978882,99.565605
	C808.309143,106.351021 805.828247,110.410835 799.903320,112.057449
	C793.670410,113.789673 787.556152,115.949303 780.995300,118.001465
z"/>
<path fill="#17B59D" opacity="1.000000" stroke="none"
	d="
M485.273041,262.332336
	C475.999329,264.348785 467.075836,266.163086 458.138214,267.904999
	C454.450134,268.623749 449.070892,264.433044 448.080048,260.193481
	C447.324280,256.959808 451.064728,250.733215 454.367310,250.052338
	C464.406006,247.982742 474.451874,245.940384 484.526581,244.056427
	C489.521393,243.122391 494.037689,246.811707 494.959473,252.218689
	C495.774750,257.000885 491.775879,261.231079 485.273041,262.332336
z"/>
<path fill="#17B59D" opacity="1.000000" stroke="none"
	d="
M963.392822,115.740921
	C955.139465,113.017014 947.229614,110.547699 939.356018,107.967834
	C934.119873,106.252151 931.744141,101.861595 933.124146,96.771667
	C934.380493,92.137650 939.041199,89.515198 944.202332,91.008171
	C952.774536,93.487885 961.281006,96.202919 969.773315,98.948341
	C977.210266,101.352600 979.905334,105.819191 977.917480,112.052544
	C976.518616,116.439064 969.903381,118.258423 963.392822,115.740921
z"/>
<path fill="#17B59D" opacity="1.000000" stroke="none"
	d="
M341.348267,244.003067
	C349.778595,245.462845 357.790100,246.907043 365.792847,248.398132
	C368.176147,248.842178 370.577484,249.274551 372.895813,249.963776
	C377.316681,251.278030 380.422485,255.461060 379.928650,259.156799
	C379.321472,263.701141 375.210571,267.536255 370.301636,266.885773
	C359.971313,265.516846 349.651794,263.844025 339.482147,261.597412
	C335.554810,260.729797 332.748566,257.387207 333.028473,252.744598
	C333.326050,247.809128 336.271393,245.092133 341.348267,244.003067
z"/>
<path fill="#17B59D" opacity="1.000000" stroke="none"
	d="
M862.351440,98.155472
	C859.414795,99.431366 856.857178,100.908066 854.134277,101.337868
	C845.112976,102.761833 836.056519,104.079559 826.965027,104.898788
	C821.470947,105.393852 818.322876,102.315758 818.001587,97.407555
	C817.646545,91.982773 821.050842,87.675232 826.087036,86.991188
	C835.447876,85.719727 844.769897,84.011978 854.169922,83.271278
	C856.962952,83.051201 861.559265,84.741951 862.491943,86.826599
	C863.874023,89.915848 862.725769,94.137276 862.351440,98.155472
z"/>
<path fill="#17B59D" opacity="1.000000" stroke="none"
	d="
M884.179932,100.000153
	C878.773193,99.637985 874.410278,94.945305 875.087524,90.688828
	C875.942932,85.312775 881.524231,81.355301 886.828247,82.009827
	C893.495056,82.832520 900.201538,83.330109 906.886719,84.008888
	C909.978394,84.322800 913.112854,84.494072 916.134155,85.157234
	C920.545227,86.125458 922.874084,90.804039 921.987183,96.250282
	C921.384644,99.950287 916.383240,103.399750 912.460449,103.000679
	C905.280945,102.270287 898.086182,101.690353 890.904541,100.979713
	C888.796570,100.771133 886.711182,100.333153 884.179932,100.000153
z"/>
<path fill="#17B59D" opacity="1.000000" stroke="none"
	d="
M392.189331,266.676819
	C389.507019,262.481171 389.841095,258.305969 392.615692,255.175323
	C395.599091,251.809113 400.050079,251.842926 404.532715,252.130539
	C411.731628,252.592453 418.996002,252.642517 426.196594,252.232407
	C430.263916,252.000748 433.776276,253.027100 435.460754,256.243927
	C436.843536,258.884705 437.386993,262.803192 436.484283,265.559998
	C435.630432,268.167572 432.882843,270.233856 429.007935,270.133270
	C422.758606,269.970947 416.342285,271.633850 410.266022,270.724579
	C404.336853,269.837341 397.481964,272.261444 392.189331,266.676819
z"/>
<path fill="#17B59D" opacity="1.000000" stroke="none"
	d="
M214.249756,182.761719
	C216.343613,185.851791 219.278091,188.546066 219.664062,191.566071
	C219.997299,194.173462 218.141479,198.075760 215.974335,199.739426
	C213.039398,201.992462 208.934708,202.181686 205.607635,199.180557
	C201.085464,195.101456 196.096725,191.433990 192.141022,186.868332
	C189.343216,183.639099 190.888855,179.350983 193.903519,176.834961
	C197.216736,174.069763 201.368408,172.920670 205.443848,175.982864
	C208.307785,178.134766 211.138474,180.330917 214.249756,182.761719
z"/>
<path fill="#17B59D" opacity="1.000000" stroke="none"
	d="
M56.526085,86.970840
	C57.214912,88.083229 57.537239,89.215218 57.859570,90.347198
	C57.277912,90.629982 56.696251,90.912758 56.114590,91.195534
	C59.713100,94.266342 63.311611,97.337151 66.973480,100.764389
	C65.165833,101.050987 62.464520,101.745834 61.571106,100.775711
	C58.149601,97.060471 55.308979,92.810272 52.119110,88.064507
	C52.003334,86.872513 52.019997,86.375755 52.036659,85.879013
	C53.410965,86.249489 54.785275,86.619965 56.526085,86.970840
z"/>
<path fill="#17B59D" opacity="1.000000" stroke="none"
	d="
M48.228210,77.217377
	C48.701759,76.678856 49.141949,76.261223 49.577419,76.266075
	C52.567379,76.299423 57.564182,81.629646 57.179054,84.825897
	C53.993202,82.544289 51.092934,80.039024 48.228210,77.217377
z"/>
<path fill="#17B59D" opacity="1.000000" stroke="none"
	d="
M36.081573,62.407654
	C36.946690,61.609444 37.938221,61.107117 38.929749,60.604790
	C39.517540,62.304276 40.105335,64.003761 40.459682,66.073799
	C38.886818,65.197418 37.547401,63.950478 36.081573,62.407654
z"/>
<path fill="#17B59D" opacity="1.000000" stroke="none"
	d="
M9.734168,73.584190
	C11.969630,72.622459 14.522779,71.948601 17.541859,71.522881
	C16.229733,75.780579 12.756518,73.371216 9.734168,73.584190
z"/>
<path fill="#17B59D" opacity="1.000000" stroke="none"
	d="
M44.221916,72.195816
	C48.331116,70.079056 49.225578,72.027992 48.469223,76.043625
	C46.881161,75.127899 45.532223,73.815765 44.221916,72.195816
z"/>
<path fill="#17B59D" opacity="1.000000" stroke="none"
	d="
M40.221916,67.195816
	C44.331116,65.079056 45.225578,67.027992 44.469223,71.043625
	C42.881161,70.127899 41.532223,68.815765 40.221916,67.195816
z"/>
<path fill="#17B59D" opacity="1.000000" stroke="none"
	d="
M51.885849,85.588051
	C52.019997,86.375755 52.003334,86.872513 51.972034,87.741753
	C51.344368,87.288811 50.731346,86.463371 50.118324,85.637924
	C50.657227,85.524315 51.196129,85.410706 51.885849,85.588051
z"/>
<path fill="#17B59D" opacity="1.000000" stroke="none"
	d="
M29.705229,45.643425
	C32.298809,35.685326 35.311996,25.886059 38.474895,15.599908
	C39.594959,16.472830 40.311073,17.030931 41.206455,17.858309
	C38.598164,26.403963 35.877579,34.704212 32.946079,42.929291
	C32.537235,44.076408 31.090902,44.853748 29.705229,45.643425
z"/>
<path fill="#17B59D" opacity="1.000000" stroke="none"
	d="
M10.935571,59.545067
	C12.992815,57.775982 15.177630,56.377548 17.711601,54.888157
	C16.607836,57.705914 16.081047,61.880760 10.935571,59.545067
z"/>
<path fill="#17B59D" opacity="1.000000" stroke="none"
	d="
M18.938747,54.549507
	C20.541897,52.978344 22.275858,51.782249 24.304783,50.458664
	C24.567011,54.575939 22.997683,55.879429 18.938747,54.549507
z"/>
<path fill="#17B59D" opacity="1.000000" stroke="none"
	d="
M25.302193,47.015129
	C24.436512,46.366962 23.992739,45.696129 23.548965,45.025299
	C24.901913,45.004524 26.254862,44.983749 27.901268,45.068810
	C27.371185,45.780586 26.547644,46.386528 25.302193,47.015129
z"/>
<path fill="#17B59D" opacity="1.000000" stroke="none"
	d="
M5.930791,62.539001
	C7.014913,61.440849 8.224968,60.707169 9.748519,59.885284
	C8.533019,60.582535 10.225686,65.521904 5.930791,62.539001
z"/>
</svg>
