<svg version="1.1" id="Layer_1" xmlns="http://www.w3.org/2000/svg" xmlns:xlink="http://www.w3.org/1999/xlink" x="0px" y="0px"
	 width="100%" viewBox="0 0 1524 736" enable-background="new 0 0 1524 736" xml:space="preserve">
<path fill="#FFFFFF" opacity="1.000000" stroke="none" 
	d="
M1.000000,363.000000 
	C1.000000,242.351990 1.000000,121.703995 1.000000,1.027996 
	C508.902740,1.027996 1016.805481,1.027996 1524.854126,1.027996 
	C1524.854126,246.333267 1524.854126,491.666626 1524.854126,737.000000 
	C1502.575684,737.000000 1480.245850,737.000000 1457.599854,736.655884 
	C1472.722290,732.297852 1478.152710,718.230469 1473.862915,704.389954 
	C1471.428589,696.535767 1463.276978,687.900208 1448.658569,688.995422 
	C1433.732300,690.113647 1424.692993,704.814636 1427.445312,717.958435 
	C1429.512695,727.831665 1436.130493,733.435669 1445.000000,737.000000 
	C963.777100,737.000000 482.554230,737.000000 1.000000,737.000000 
	C1.000000,613.972168 1.000000,490.944031 1.333055,367.585022 
	C2.901649,369.124481 3.846100,371.305603 5.437554,372.795837 
	C8.166630,375.351410 11.293013,377.484283 14.265388,379.778046 
	C18.617298,383.136383 24.518072,382.806946 27.415937,379.059296 
	C30.360395,375.251404 29.377851,369.168945 25.315798,365.814667 
	C23.037966,363.933746 20.818695,361.982117 18.559790,360.078064 
	C10.953859,353.667023 5.249195,354.619080 1.000000,363.000000 
M1433.606201,470.000122 
	C1424.641968,472.242950 1415.294556,473.555084 1406.840698,477.037109 
	C1400.612671,479.602356 1394.823486,484.311554 1390.115845,489.276337 
	C1378.470581,501.557770 1378.196411,517.226746 1380.229858,532.615417 
	C1382.592285,550.493042 1389.124390,567.384827 1397.846069,583.026550 
	C1408.224365,601.638733 1419.742920,619.642578 1431.361450,637.524048 
	C1437.217651,646.536804 1444.385986,654.696960 1451.832275,664.375244 
	C1463.489258,647.630005 1474.721313,632.005371 1485.408447,616.016541 
	C1499.292114,595.245483 1511.133911,573.413940 1518.372437,549.300232 
	C1522.335449,536.098083 1524.560913,522.802246 1521.966553,509.086090 
	C1519.807129,497.669434 1513.975952,488.514893 1504.417603,481.788055 
	C1490.562866,472.037445 1474.491577,470.073883 1458.299072,469.136597 
	C1450.417114,468.680359 1442.451538,469.666687 1433.606201,470.000122 
M979.677246,393.796051 
	C982.864075,386.968506 980.349060,383.627747 977.190552,381.153259 
	C973.790466,378.489502 968.641357,379.622040 964.863403,383.691895 
	C959.259827,389.728271 953.945129,396.032440 948.356262,402.082916 
	C944.079773,406.712708 943.698242,411.082977 947.576172,415.080933 
	C951.464966,419.090027 956.680420,419.045624 960.907593,414.540009 
	C967.111023,407.927765 973.063721,401.080322 979.677246,393.796051 
M36.849995,383.034271 
	C31.762564,387.589233 31.064054,393.217438 36.058979,397.343384 
	C43.576561,403.553162 51.557968,409.235535 59.615925,414.741486 
	C63.224247,417.207001 68.772705,415.580872 70.907600,412.266693 
	C73.346611,408.480408 72.218010,401.900665 68.671638,399.282562 
	C62.387012,394.642975 56.156025,389.927612 49.788177,385.405029 
	C46.178135,382.841125 42.394115,380.342499 36.849995,383.034271 
M832.342896,501.933594 
	C837.203857,499.625397 842.138428,497.458038 846.903564,494.966614 
	C851.089722,492.777924 852.438354,487.017456 850.133850,482.466766 
	C848.473999,479.189026 843.384521,476.985596 840.089355,478.468842 
	C831.025879,482.548584 822.003601,486.725708 813.047485,491.035614 
	C808.673950,493.140320 808.298767,497.305450 809.265381,501.277191 
	C810.146118,504.896088 813.035889,507.638214 816.889221,506.849518 
	C821.904297,505.823029 826.699036,503.720459 832.342896,501.933594 
M936.531006,436.977386 
	C936.886047,436.627655 937.202942,436.225433 937.601807,435.936096 
	C943.347839,431.768402 944.591919,426.542328 940.939697,421.843323 
	C937.704895,417.681427 930.922058,418.063538 926.158386,422.255981 
	C920.511597,427.225647 914.662476,431.977142 908.742249,436.620697 
	C903.682739,440.589111 902.341064,445.623596 905.549194,450.025757 
	C908.263000,453.749695 914.065247,454.396729 918.650818,451.036163 
	C924.569641,446.698486 930.236816,442.017303 936.531006,436.977386 
M684.492859,455.995972 
	C685.279236,456.849518 686.173340,457.627533 686.833740,458.569427 
	C689.962524,463.031860 696.569946,464.606750 700.531555,461.772949 
	C704.208496,459.142761 704.850525,453.708710 701.631531,449.168304 
	C696.541260,441.988678 691.170471,435.008545 685.990295,427.891663 
	C683.017761,423.807709 677.448914,422.578888 673.398315,425.261749 
	C669.679138,427.725128 668.638428,433.873779 671.478210,437.985687 
	C675.549316,443.880402 679.805176,449.647491 684.492859,455.995972 
M718.295166,468.833649 
	C714.696350,466.197418 709.305481,466.192200 706.683411,468.822357 
	C703.441833,472.073975 702.635864,477.663269 705.589355,480.935944 
	C712.125793,488.178772 718.852905,495.265289 725.793396,502.120789 
	C728.998047,505.286102 735.533447,504.493042 738.258972,501.219788 
	C740.943909,497.995178 740.631348,492.234863 737.661621,489.122437 
	C731.382507,482.541504 725.131531,475.933655 718.295166,468.833649 
M714.931030,35.570454 
	C713.543640,35.969288 711.885803,36.011055 710.812195,36.824154 
	C703.142883,42.632587 695.447693,48.424656 688.066528,54.588154 
	C684.453735,57.605003 684.583618,63.997841 687.656189,67.164543 
	C691.159241,70.774963 695.726929,70.875961 699.939087,67.604431 
	C706.886414,62.208599 714.002258,57.023232 720.808533,51.457321 
	C722.369812,50.180553 723.706970,47.778206 723.866577,45.790966 
	C724.457703,38.431362 723.769348,37.797440 714.931030,35.570454 
M897.119080,465.337463 
	C897.744507,463.862183 899.160522,462.177368 898.836304,460.953705 
	C898.081909,458.106598 897.079895,454.889252 895.094177,452.908661 
	C892.278076,450.099792 888.565247,450.985321 885.236328,452.943481 
	C877.523499,457.480438 869.697449,461.831421 862.082642,466.525970 
	C857.895386,469.107452 856.896362,473.860535 859.052002,478.222931 
	C861.017883,482.201233 865.920776,484.725586 869.659424,482.592560 
	C878.832703,477.358948 887.654358,471.509003 897.119080,465.337463 
M143.011032,466.510559 
	C145.927444,467.982849 148.821960,469.500641 151.765213,470.917175 
	C156.605713,473.246765 162.255386,472.060638 164.279907,468.283905 
	C167.339172,462.576843 165.752319,458.668030 160.942032,455.708862 
	C152.910721,450.768311 144.370392,446.616760 135.868652,442.495453 
	C131.550720,440.402222 127.178513,442.411926 124.732292,446.816345 
	C122.658249,450.550659 123.924408,455.486969 127.943947,457.938232 
	C132.660110,460.814362 137.567368,463.377197 143.011032,466.510559 
M943.468994,60.980980 
	C949.387817,65.898827 955.346497,70.769798 961.209229,75.753593 
	C964.317566,78.395973 971.035339,77.381851 973.311584,75.115257 
	C975.741882,72.695267 975.885437,65.133858 973.210938,62.834423 
	C965.768921,56.435940 958.309204,50.024109 950.465088,44.139385 
	C945.308350,40.270752 937.606201,44.035305 936.999756,50.174320 
	C936.518799,55.042313 938.594360,58.406155 943.468994,60.980980 
M642.407288,390.902374 
	C646.823792,398.684875 651.074097,406.568237 655.713989,414.215179 
	C658.933594,419.521210 663.655518,420.358002 668.575806,417.080688 
	C672.267639,414.621613 673.261353,408.735382 670.779175,404.440643 
	C666.626343,397.255554 662.476074,390.068298 658.409180,382.834442 
	C655.807617,378.207123 650.808350,376.487732 645.813721,378.670013 
	C641.275330,380.652954 639.959412,384.675323 642.407288,390.902374 
M883.437012,614.079834 
	C891.233032,617.834045 898.968567,621.721558 906.846130,625.295959 
	C912.207031,627.728455 916.731506,625.901245 919.031921,620.852783 
	C921.120544,616.269043 919.314514,611.499023 914.378296,609.121399 
	C906.437561,605.296631 898.473145,601.515808 890.443237,597.883240 
	C883.926270,594.935181 878.438843,598.526245 877.897766,605.387939 
	C877.563660,609.626099 879.932373,611.747742 883.437012,614.079834 
M666.007629,76.498894 
	C664.679260,78.159798 663.306213,79.787193 662.030762,81.487831 
	C658.116882,86.706268 653.957642,91.771072 650.439026,97.246025 
	C647.635620,101.608017 648.977295,106.672226 652.741577,108.912476 
	C657.013794,111.455032 663.094421,110.100357 665.981018,106.224297 
	C670.077515,100.723541 674.499084,95.461868 678.516235,89.906036 
	C681.075012,86.367279 685.350159,83.267433 683.425476,77.952431 
	C680.683655,70.380714 673.130432,69.552788 666.007629,76.498894 
M955.387939,645.096191 
	C956.140198,645.401367 956.875793,645.759521 957.647400,646.003418 
	C963.540649,647.865784 967.850891,646.376831 969.576355,641.907043 
	C971.700500,636.404602 969.528564,631.639282 963.724487,629.341125 
	C956.184631,626.355469 948.610107,623.457214 941.049011,620.525330 
	C935.846802,618.508240 930.996155,619.716248 928.826965,623.561707 
	C925.380798,629.670654 927.729126,634.761047 935.475098,637.766602 
	C941.825012,640.230591 948.213135,642.596130 955.387939,645.096191 
M856.965881,579.489136 
	C852.018860,576.668030 847.139282,573.716064 842.081604,571.109619 
	C840.660217,570.377136 838.193237,569.892822 837.114685,570.627991 
	C834.471802,572.429382 831.400146,574.614929 830.268982,577.371399 
	C828.766907,581.031555 830.526184,584.651123 834.286621,586.809937 
	C842.182495,591.342896 850.001282,596.013855 857.962219,600.428894 
	C862.569458,602.984009 867.186340,601.673157 869.802795,597.485657 
	C872.207031,593.637756 871.246094,588.667480 867.137085,585.742493 
	C864.102783,583.582520 860.728821,581.899658 856.965881,579.489136 
M1006.528442,101.022255 
	C1001.459961,94.634529 996.738647,87.913155 991.114075,82.059792 
	C989.398376,80.274384 984.801331,79.786522 982.252563,80.711731 
	C979.979675,81.536774 978.013123,84.907997 977.159424,87.557671 
	C975.736633,91.974113 979.503601,94.631569 981.902832,97.720177 
	C986.691772,103.885147 991.084167,110.366257 996.025330,116.401627 
	C998.902100,119.915558 1003.089844,120.112541 1006.683594,117.585747 
	C1009.988770,115.261810 1012.553528,112.093590 1010.136658,107.519508 
	C1009.091431,105.541451 1008.073181,103.549149 1006.528442,101.022255 
M1010.063232,338.594818 
	C1004.285950,333.149078 999.179321,333.574402 995.013672,340.104614 
	C990.462341,347.239502 986.010925,354.445312 981.756470,361.760071 
	C978.521912,367.321106 979.722961,371.957062 984.713928,374.903320 
	C988.750305,377.286041 993.425842,375.792877 996.673035,370.802856 
	C1001.380188,363.569244 1006.299011,356.427795 1010.326599,348.822845 
	C1011.682373,346.262665 1010.595947,342.409119 1010.063232,338.594818 
M1014.159790,646.064148 
	C1006.062073,643.686401 997.984192,641.238098 989.859314,638.956970 
	C984.884155,637.560181 980.333069,639.666748 979.165649,643.646545 
	C977.535522,649.203430 979.902588,654.251282 985.213379,655.941284 
	C993.404175,658.547729 1001.637878,661.025208 1009.893005,663.421143 
	C1015.615417,665.082031 1020.248291,663.106506 1021.752869,658.617004 
	C1023.526917,653.323242 1020.799072,648.467468 1014.159790,646.064148 
M91.336937,436.067474 
	C95.673706,438.950439 99.893562,442.033142 104.380745,444.659088 
	C108.708313,447.191589 114.249458,445.576874 116.804985,441.481018 
	C119.205673,437.633301 118.319199,432.548004 114.135155,429.751953 
	C106.437378,424.607849 98.562363,419.718231 90.628456,414.943146 
	C87.125862,412.835114 81.180962,413.843933 79.251122,416.397095 
	C75.986137,420.716644 76.260292,425.259430 80.587730,428.974457 
	C83.656586,431.609039 87.250702,433.631744 91.336937,436.067474 
M741.983093,38.952518 
	C750.647644,35.302414 759.343384,31.724098 767.963684,27.972334 
	C772.363098,26.057638 774.457581,20.802458 772.804810,16.547066 
	C771.225586,12.480750 766.059753,10.170733 761.508545,11.870790 
	C753.316406,14.930886 745.124512,18.026476 737.109070,21.513081 
	C731.679565,23.874834 729.400452,27.987062 730.429626,31.908903 
	C731.773926,37.031578 734.705811,38.967445 741.983093,38.952518 
M773.305847,506.917725 
	C770.218140,507.927368 767.113403,508.888062 764.046814,509.958191 
	C759.460999,511.558472 757.078125,515.565552 758.041687,519.908020 
	C759.000122,524.227173 764.310303,528.191345 768.551392,526.866638 
	C778.160645,523.865234 787.683594,520.530884 797.058777,516.864197 
	C800.888062,515.366577 802.008850,511.716614 801.270081,507.592316 
	C800.444763,502.985321 797.829346,500.133301 793.155762,501.117859 
	C786.679626,502.482208 780.376465,504.667236 773.305847,506.917725 
M232.348114,488.091766 
	C230.933197,488.407318 229.341629,488.413361 228.138565,489.100067 
	C225.252396,490.747467 222.768066,492.641296 222.911041,496.705719 
	C223.050797,500.679138 223.962570,503.929260 227.928131,505.418396 
	C236.437622,508.613770 244.933334,511.870514 253.562927,514.712769 
	C259.103271,516.537476 264.481781,513.907043 265.825043,509.383545 
	C267.243286,504.607391 264.290985,499.948273 258.640594,497.900665 
	C250.091202,494.802429 241.561203,491.650635 232.348114,488.091766 
M1042.662476,235.196259 
	C1039.725708,232.012939 1036.601074,230.007263 1031.914429,231.882050 
	C1028.274780,233.337952 1026.449341,235.754593 1026.002197,239.472839 
	C1024.989380,247.895340 1024.051514,256.327789 1022.936951,264.736786 
	C1022.160828,270.592651 1024.500244,274.990143 1029.189209,275.962402 
	C1034.211670,277.003815 1038.788574,273.637054 1039.972046,267.682739 
	C1041.142822,261.792877 1042.293945,255.870209 1042.896118,249.905640 
	C1043.361206,245.297516 1042.964722,240.602417 1042.662476,235.196259 
M804.348328,567.068481 
	C806.428589,568.658936 808.398621,570.427246 810.613159,571.801208 
	C814.654175,574.308289 820.232605,573.150757 823.013794,569.453003 
	C825.298950,566.414734 824.258301,559.871948 820.795349,557.322021 
	C813.979553,552.303467 807.067078,547.412964 800.116272,542.582214 
	C794.476929,538.662903 788.971313,539.184692 785.819580,543.740723 
	C783.205200,547.519958 785.242920,553.510071 790.214905,557.057434 
	C794.733398,560.281250 799.160706,563.633057 804.348328,567.068481 
M1015.081604,156.308929 
	C1015.731079,158.141296 1016.325867,159.995331 1017.041016,161.801697 
	C1018.688171,165.962006 1023.402222,168.699631 1027.561523,167.974258 
	C1031.663940,167.258820 1035.126221,163.675903 1033.772339,159.080353 
	C1030.675537,148.568863 1026.778320,138.228699 1022.273376,128.239700 
	C1021.074585,125.581596 1016.795166,123.824852 1012.698303,125.679031 
	C1006.979370,128.267303 1005.265869,132.816589 1007.952881,138.923294 
	C1010.372742,144.422836 1012.656982,149.982040 1015.081604,156.308929 
M345.204773,541.077698 
	C349.767090,542.199585 354.334106,543.302856 358.890625,544.447937 
	C364.748505,545.919983 369.825104,543.161926 370.956146,537.859192 
	C372.025665,532.844849 368.458344,528.234497 362.708099,527.022095 
	C354.614441,525.315491 346.522278,523.594360 338.463562,521.731934 
	C333.525818,520.590820 328.676788,522.570740 327.172180,526.627441 
	C325.440125,531.297241 327.916321,536.724304 332.992432,538.406616 
	C336.663757,539.623352 340.557922,540.167664 345.204773,541.077698 
M1369.707031,704.000061 
	C1368.119385,703.687927 1366.536011,703.352417 1364.943481,703.068115 
	C1359.981079,702.182007 1355.149536,705.611450 1354.093994,710.750488 
	C1353.252075,714.849182 1357.046997,720.516846 1361.413940,720.909912 
	C1371.227539,721.793396 1381.065796,722.473206 1390.908203,722.933289 
	C1395.449463,723.145569 1398.507812,720.202148 1398.994019,716.031311 
	C1399.597290,710.858887 1397.261719,706.713562 1392.601929,706.075195 
	C1385.320435,705.077698 1377.959106,704.662109 1369.707031,704.000061 
M210.393219,479.077393 
	C202.414627,475.444336 194.420700,471.844452 186.463043,468.166107 
	C181.438171,465.843475 175.454849,467.180939 173.354584,471.209991 
	C171.169083,475.402557 173.343414,481.615143 178.392242,484.002533 
	C186.591721,487.879822 194.925552,491.493805 203.325043,494.918823 
	C207.798706,496.742981 211.791153,495.024109 214.000549,491.019989 
	C216.159592,487.107117 215.056488,482.847321 210.393219,479.077393 
M647.066101,136.658569 
	C648.528625,134.119812 650.216980,131.681442 651.401001,129.018829 
	C653.185486,125.006073 651.697998,119.104469 648.774048,117.353081 
	C644.913757,115.040817 638.540161,115.508507 636.705505,118.982582 
	C631.921387,128.041611 627.343628,137.241333 623.320129,146.656952 
	C621.302307,151.378906 624.325745,156.575211 628.650085,157.836258 
	C633.521790,159.256927 637.984070,156.836456 640.085815,151.976974 
	C642.214478,147.055130 644.630859,142.257721 647.066101,136.658569 
M1209.508301,704.999939 
	C1215.684692,705.666443 1221.847534,706.603882 1228.041748,706.911072 
	C1232.730225,707.143555 1235.726685,703.941223 1235.998779,699.397095 
	C1236.321167,694.011108 1233.862671,690.768494 1228.834839,690.006348 
	C1219.982178,688.664429 1211.132446,687.299805 1202.269409,686.029114 
	C1196.718994,685.233398 1191.690674,688.833679 1191.068115,693.896667 
	C1190.517456,698.375000 1195.283325,703.530945 1200.338623,704.009705 
	C1203.100464,704.271301 1205.849976,704.664429 1209.508301,704.999939 
M1090.244263,667.290955 
	C1085.412598,669.007263 1082.999146,672.342712 1084.071777,677.477539 
	C1085.121460,682.501404 1088.808472,684.561096 1093.644287,685.025024 
	C1094.596558,685.116333 1095.508667,685.565735 1096.458984,685.747253 
	C1103.954102,687.178955 1111.410034,688.938538 1118.967529,689.878357 
	C1124.172485,690.525513 1127.489746,687.491333 1127.994141,682.992310 
	C1128.605957,677.536987 1126.341064,674.240845 1121.083374,672.949097 
	C1119.044800,672.448242 1117.017944,671.879883 1114.958130,671.488770 
	C1106.989746,669.975708 1099.010376,668.521667 1090.244263,667.290955 
M1071.123779,676.973267 
	C1072.398438,673.982788 1074.857178,670.906433 1074.648315,668.023499 
	C1074.387207,664.421570 1071.659668,661.766174 1067.262207,660.826477 
	C1058.872681,659.033447 1050.666138,656.393372 1042.362915,654.182739 
	C1038.004639,653.022339 1032.107422,656.054016 1031.106567,659.833008 
	C1029.773071,664.866821 1032.130737,669.440735 1037.259155,671.035156 
	C1043.133057,672.861450 1049.037842,674.728210 1055.062012,675.887207 
	C1060.048950,676.846558 1065.228882,676.802856 1071.123779,676.973267 
M443.712006,558.000000 
	C452.882111,558.666626 462.046478,559.452148 471.227386,559.893555 
	C472.939423,559.975830 475.049438,559.071411 476.398926,557.936462 
	C479.535797,555.298218 479.743439,551.620056 478.439545,548.007996 
	C477.112000,544.330383 474.165375,543.136719 470.300781,542.922180 
	C462.118195,542.468079 453.919220,541.878235 445.804291,540.775208 
	C439.545166,539.924561 435.333435,542.032532 434.120728,547.695801 
	C433.081421,552.549377 436.792603,556.930786 443.712006,558.000000 
M626.973816,316.534760 
	C629.246338,313.811371 630.342224,311.220764 629.279053,307.238495 
	C627.024292,298.793518 625.656799,290.107971 624.021606,281.502808 
	C623.281799,277.609802 618.650513,273.677826 614.987061,274.060364 
	C610.874512,274.489777 606.550171,278.579712 607.109009,282.516479 
	C608.407227,291.661499 610.044495,300.775574 611.986755,309.807068 
	C613.869629,318.562225 618.156189,320.534119 626.973816,316.534760 
M274.896973,512.464722 
	C273.148071,517.924133 275.344971,522.024658 281.341553,523.957703 
	C289.657623,526.638306 298.015015,529.194885 306.387695,531.694092 
	C311.014130,533.075012 316.317474,530.107056 317.783966,525.517761 
	C319.230682,520.990417 316.787933,516.624084 311.640686,514.931091 
	C303.656494,512.304993 295.656128,509.719421 287.606171,507.304901 
	C281.644043,505.516541 277.554810,507.059479 274.896973,512.464722 
M1013.088196,299.650940 
	C1011.057251,304.962311 1008.939453,310.242523 1007.019775,315.593842 
	C1005.123840,320.878693 1006.921326,325.116119 1011.746887,327.274445 
	C1016.216614,329.273621 1020.705627,327.745819 1022.996460,322.491058 
	C1026.626831,314.163635 1029.941772,305.668701 1032.817993,297.053680 
	C1034.599365,291.718140 1031.835327,286.567566 1027.475708,285.203003 
	C1022.158386,283.538666 1017.985168,286.033264 1015.935730,292.078094 
	C1015.153320,294.385864 1014.327332,296.678864 1013.088196,299.650940 
M860.548279,22.986916 
	C864.392883,23.657898 868.215820,24.667522 872.087524,24.916159 
	C877.198608,25.244390 880.072144,22.642149 880.965637,17.706213 
	C881.601074,14.196033 878.694580,8.867023 874.983887,8.135322 
	C865.100525,6.186417 855.162781,4.430157 845.178772,3.111311 
	C840.532410,2.497541 836.184204,6.932458 836.035461,11.339920 
	C835.907043,15.147008 839.736084,19.308844 843.875854,20.020008 
	C849.153809,20.926701 854.413696,21.938671 860.548279,22.986916 
M551.983154,545.000366 
	C545.657288,545.268494 543.227417,550.064270 543.086670,554.176697 
	C542.916748,559.140137 547.133301,562.990479 552.859497,562.933899 
	C561.595581,562.847656 570.337585,562.490112 579.057190,561.934814 
	C584.894836,561.563110 588.267822,557.451172 587.999329,551.784546 
	C587.762512,546.784363 584.320618,543.915588 578.094238,544.040833 
	C569.688782,544.209839 561.289124,544.666626 551.983154,545.000366 
M1027.045044,215.973572 
	C1028.630005,220.619568 1032.497437,222.021393 1036.664917,221.563156 
	C1041.490234,221.032593 1044.311646,217.287079 1043.918457,212.067780 
	C1043.192383,202.434555 1042.128784,192.818649 1040.896240,183.235367 
	C1040.340454,178.913879 1036.134521,176.508102 1031.136841,177.004700 
	C1026.852417,177.430420 1023.730652,180.503326 1024.067139,184.803238 
	C1024.859497,194.928940 1026.004028,205.027130 1027.045044,215.973572 
M609.011108,191.594193 
	C608.619507,194.177002 608.342834,196.783707 607.811829,199.337540 
	C606.770569,204.344894 608.874939,208.867096 612.872498,209.900558 
	C618.912598,211.462051 623.678589,208.756195 624.934570,203.015198 
	C625.247620,201.584473 625.367920,200.111115 625.689941,198.682861 
	C627.440430,190.919174 629.192627,183.155548 631.013000,175.408066 
	C632.055725,170.970032 628.032959,167.367371 623.322571,166.173370 
	C619.868530,165.297836 615.181274,168.511200 614.044189,172.417816 
	C612.276550,178.490952 610.726746,184.627533 609.011108,191.594193 
M895.090698,33.584557 
	C901.278198,36.437748 907.446960,39.332855 913.662537,42.123508 
	C916.151611,43.241051 918.680420,44.366287 921.303528,45.067783 
	C925.764893,46.260876 928.907104,43.814049 930.765381,40.229218 
	C932.663391,36.567719 930.585205,30.869589 926.948730,29.042620 
	C918.796021,24.946650 910.605957,20.906172 902.280518,17.179672 
	C896.925537,14.782747 892.289185,16.594070 889.900391,21.357599 
	C887.639038,25.867086 889.120483,29.643991 895.090698,33.584557 
M677.368530,531.987183 
	C671.266663,533.006958 665.140442,533.901917 659.070923,535.087341 
	C654.481140,535.983826 651.358276,540.754028 652.013916,545.335266 
	C652.589355,549.356079 656.898987,553.446045 661.031128,552.769653 
	C670.621460,551.199707 680.167053,549.255005 689.624512,547.013611 
	C695.408569,545.642883 697.079529,542.285706 695.971436,536.368408 
	C695.146301,531.962280 690.983154,529.270874 685.797424,530.054382 
	C683.242065,530.440491 680.755310,531.281006 677.368530,531.987183 
M739.637939,517.012390 
	C730.690369,519.342834 721.753479,521.715637 712.791260,523.988403 
	C707.126953,525.424805 704.834961,529.266724 706.028809,535.629700 
	C706.820923,539.851257 710.847229,542.168884 716.148376,540.999756 
	C725.023132,539.042297 733.894958,537.023010 742.658630,534.629272 
	C748.060669,533.153809 749.766479,529.984741 748.955444,524.063660 
	C748.300842,519.284668 745.335571,516.920166 739.637939,517.012390 
M527.295898,545.779419 
	C526.042175,545.519653 524.790039,545.043884 523.534485,545.034790 
	C514.556274,544.969971 505.577271,544.971252 496.598785,545.012512 
	C492.218048,545.032593 489.141357,548.001526 489.000427,552.185364 
	C488.800354,558.123962 491.324432,561.715637 496.255920,561.960754 
	C505.493866,562.419861 514.741882,562.682434 523.986816,562.992554 
	C528.352905,563.139038 531.736694,561.606262 532.976929,557.075378 
	C534.370361,551.985168 532.815430,548.620850 527.295898,545.779419 
M601.042725,557.557373 
	C603.284546,558.267822 605.577087,559.709900 607.759338,559.558838 
	C616.075684,558.983215 624.407837,558.214355 632.634277,556.895264 
	C639.256836,555.833313 641.512085,554.821411 641.979309,549.588318 
	C642.687378,541.658447 638.117615,537.755554 630.144592,539.015808 
	C622.722656,540.188904 615.266479,541.248352 607.785645,541.903503 
	C603.974976,542.237305 600.546265,542.451721 598.841858,546.538147 
	C597.239807,550.379272 597.557068,553.879333 601.042725,557.557373 
M643.135559,368.969391 
	C647.552246,365.936157 647.880615,361.899994 646.080994,357.275482 
	C643.196106,349.862122 640.297180,342.452942 637.536377,334.993042 
	C635.349182,329.083282 631.153503,326.331451 626.349060,327.914001 
	C620.282776,329.912140 618.544067,333.719482 620.943848,340.674866 
	C623.641602,348.494080 626.471130,356.275604 629.523438,363.962311 
	C631.839722,369.795380 635.508484,371.123627 643.135559,368.969391 
M1306.986816,699.000366 
	C1302.032837,699.883301 1299.657104,703.098999 1300.001709,708.454651 
	C1300.282349,712.814331 1303.129517,715.644165 1307.543457,716.001343 
	C1316.555054,716.730347 1325.583008,717.315308 1334.569092,718.283997 
	C1339.592041,718.825439 1344.632324,715.657410 1344.880005,710.637878 
	C1345.108032,706.016052 1342.357300,701.648132 1337.435913,701.127991 
	C1327.621094,700.090698 1317.740723,699.673401 1306.986816,699.000366 
M790.774231,21.999229 
	C800.729126,20.990292 810.695312,20.078238 820.632507,18.917770 
	C823.932434,18.532402 827.212097,13.601106 826.994019,10.074823 
	C826.752380,6.169672 822.996887,1.978582 819.290955,2.057031 
	C812.023865,2.210863 804.750854,2.526276 797.505859,3.098304 
	C793.960876,3.378193 789.993042,3.581650 787.108826,5.309299 
	C784.725647,6.736846 782.591980,10.218432 782.233459,13.030334 
	C781.587891,18.092873 785.008728,20.997774 790.774231,21.999229 
M395.738617,533.907898 
	C393.313110,533.605347 390.892090,533.258972 388.461151,533.009155 
	C383.127869,532.461182 381.345825,536.265625 380.104767,540.273560 
	C379.188293,543.233215 382.615417,549.284485 385.790253,549.779663 
	C396.268372,551.414124 406.793976,552.799011 417.339386,553.923035 
	C422.428528,554.465576 423.874115,550.253540 424.906006,546.432800 
	C425.724182,543.403198 422.022980,537.623352 418.930725,537.113708 
	C411.528656,535.893616 404.071594,535.006836 395.738617,533.907898 
M1139.937866,692.416687 
	C1141.647461,693.279053 1143.274902,694.604858 1145.080566,694.924988 
	C1153.716309,696.456116 1162.413696,697.634949 1171.062256,699.098511 
	C1176.643555,700.043152 1181.143066,697.455444 1181.976929,692.526978 
	C1182.797974,687.674500 1179.070435,682.854736 1173.915527,681.994812 
	C1166.231934,680.712952 1158.589355,679.124390 1150.868042,678.154602 
	C1146.579224,677.615906 1141.195801,676.581604 1139.121704,681.756287 
	C1137.967651,684.635559 1139.185791,688.465698 1139.937866,692.416687 
M1269.351196,712.001770 
	C1273.597900,712.334473 1277.839600,712.816406 1282.092773,712.957642 
	C1286.285400,713.097046 1289.664307,710.233765 1289.997070,706.645447 
	C1290.510986,701.102539 1288.359985,696.737915 1284.082764,696.176208 
	C1274.205811,694.879089 1264.284912,693.832825 1254.351562,693.085754 
	C1249.547607,692.724365 1246.427124,695.792847 1246.004395,700.190063 
	C1245.479736,705.647034 1247.536011,709.075439 1252.459595,709.952087 
	C1257.736328,710.891785 1263.100952,711.338318 1269.351196,712.001770 
M604.000000,229.808502 
	C604.000000,238.635056 603.971008,247.461761 604.011475,256.288116 
	C604.033752,261.140320 607.923950,265.220154 612.563904,264.949890 
	C618.624207,264.596893 621.166382,261.182739 621.058411,256.310455 
	C620.855530,247.155304 621.004639,237.992477 620.998291,228.832840 
	C620.994507,223.414032 618.203918,220.185562 613.388000,220.001114 
	C608.004578,219.794937 604.340149,223.264984 604.000000,229.808502 
z"/>
<path fill="#17B59D" opacity="1.000000" stroke="none" 
	d="
M1445.460693,737.000000 
	C1436.130493,733.435669 1429.512695,727.831665 1427.445312,717.958435 
	C1424.692993,704.814636 1433.732300,690.113647 1448.658569,688.995422 
	C1463.276978,687.900208 1471.428589,696.535767 1473.862915,704.389954 
	C1478.152710,718.230469 1472.722290,732.297852 1457.141968,736.655884 
	C1453.307129,737.000000 1449.614136,737.000000 1445.460693,737.000000 
z"/>
<path fill="#17B59D" opacity="1.000000" stroke="none" 
	d="
M1.000000,363.399994 
	C5.249195,354.619080 10.953859,353.667023 18.559790,360.078064 
	C20.818695,361.982117 23.037966,363.933746 25.315798,365.814667 
	C29.377851,369.168945 30.360395,375.251404 27.415937,379.059296 
	C24.518072,382.806946 18.617298,383.136383 14.265388,379.778046 
	C11.293013,377.484283 8.166630,375.351410 5.437554,372.795837 
	C3.846100,371.305603 2.901649,369.124481 1.333055,367.127075 
	C1.000000,365.933319 1.000000,364.866669 1.000000,363.399994 
z"/>
<path fill="#17B59D" opacity="1.000000" stroke="none" 
	d="
M1434.064941,470.000061 
	C1442.451538,469.666687 1450.417114,468.680359 1458.299072,469.136597 
	C1474.491577,470.073883 1490.562866,472.037445 1504.417603,481.788055 
	C1513.975952,488.514893 1519.807129,497.669434 1521.966553,509.086090 
	C1524.560913,522.802246 1522.335449,536.098083 1518.372437,549.300232 
	C1511.133911,573.413940 1499.292114,595.245483 1485.408447,616.016541 
	C1474.721313,632.005371 1463.489258,647.630005 1451.832275,664.375244 
	C1444.385986,654.696960 1437.217651,646.536804 1431.361450,637.524048 
	C1419.742920,619.642578 1408.224365,601.638733 1397.846069,583.026550 
	C1389.124390,567.384827 1382.592285,550.493042 1380.229858,532.615417 
	C1378.196411,517.226746 1378.470581,501.557770 1390.115845,489.276337 
	C1394.823486,484.311554 1400.612671,479.602356 1406.840698,477.037109 
	C1415.294556,473.555084 1424.641968,472.242950 1434.064941,470.000061 
M1473.322144,505.061371 
	C1453.024780,491.810394 1430.280396,498.300873 1417.952271,516.705383 
	C1406.649170,533.579651 1410.646118,557.719971 1429.449829,570.795105 
	C1445.792236,582.158752 1471.135864,577.833740 1482.724609,561.657104 
	C1496.226318,542.809937 1492.506226,519.003540 1473.322144,505.061371 
z"/>
<path fill="#17B59D" opacity="1.000000" stroke="none" 
	d="
M979.400269,394.064575 
	C973.063721,401.080322 967.111023,407.927765 960.907593,414.540009 
	C956.680420,419.045624 951.464966,419.090027 947.576172,415.080933 
	C943.698242,411.082977 944.079773,406.712708 948.356262,402.082916 
	C953.945129,396.032440 959.259827,389.728271 964.863403,383.691895 
	C968.641357,379.622040 973.790466,378.489502 977.190552,381.153259 
	C980.349060,383.627747 982.864075,386.968506 979.400269,394.064575 
z"/>
<path fill="#17B59D" opacity="1.000000" stroke="none" 
	d="
M37.244377,382.927856 
	C42.394115,380.342499 46.178135,382.841125 49.788177,385.405029 
	C56.156025,389.927612 62.387012,394.642975 68.671638,399.282562 
	C72.218010,401.900665 73.346611,408.480408 70.907600,412.266693 
	C68.772705,415.580872 63.224247,417.207001 59.615925,414.741486 
	C51.557968,409.235535 43.576561,403.553162 36.058979,397.343384 
	C31.064054,393.217438 31.762564,387.589233 37.244377,382.927856 
z"/>
<path fill="#17B59D" opacity="1.000000" stroke="none" 
	d="
M831.965759,502.007294 
	C826.699036,503.720459 821.904297,505.823029 816.889221,506.849518 
	C813.035889,507.638214 810.146118,504.896088 809.265381,501.277191 
	C808.298767,497.305450 808.673950,493.140320 813.047485,491.035614 
	C822.003601,486.725708 831.025879,482.548584 840.089355,478.468842 
	C843.384521,476.985596 848.473999,479.189026 850.133850,482.466766 
	C852.438354,487.017456 851.089722,492.777924 846.903564,494.966614 
	C842.138428,497.458038 837.203857,499.625397 831.965759,502.007294 
z"/>
<path fill="#17B59D" opacity="1.000000" stroke="none" 
	d="
M936.271729,437.230713 
	C930.236816,442.017303 924.569641,446.698486 918.650818,451.036163 
	C914.065247,454.396729 908.263000,453.749695 905.549194,450.025757 
	C902.341064,445.623596 903.682739,440.589111 908.742249,436.620697 
	C914.662476,431.977142 920.511597,427.225647 926.158386,422.255981 
	C930.922058,418.063538 937.704895,417.681427 940.939697,421.843323 
	C944.591919,426.542328 943.347839,431.768402 937.601807,435.936096 
	C937.202942,436.225433 936.886047,436.627655 936.271729,437.230713 
z"/>
<path fill="#17B59D" opacity="1.000000" stroke="none" 
	d="
M684.237549,455.732513 
	C679.805176,449.647491 675.549316,443.880402 671.478210,437.985687 
	C668.638428,433.873779 669.679138,427.725128 673.398315,425.261749 
	C677.448914,422.578888 683.017761,423.807709 685.990295,427.891663 
	C691.170471,435.008545 696.541260,441.988678 701.631531,449.168304 
	C704.850525,453.708710 704.208496,459.142761 700.531555,461.772949 
	C696.569946,464.606750 689.962524,463.031860 686.833740,458.569427 
	C686.173340,457.627533 685.279236,456.849518 684.237549,455.732513 
z"/>
<path fill="#17B59D" opacity="1.000000" stroke="none" 
	d="
M718.582092,469.085205 
	C725.131531,475.933655 731.382507,482.541504 737.661621,489.122437 
	C740.631348,492.234863 740.943909,497.995178 738.258972,501.219788 
	C735.533447,504.493042 728.998047,505.286102 725.793396,502.120789 
	C718.852905,495.265289 712.125793,488.178772 705.589355,480.935944 
	C702.635864,477.663269 703.441833,472.073975 706.683411,468.822357 
	C709.305481,466.192200 714.696350,466.197418 718.582092,469.085205 
z"/>
<path fill="#17B59D" opacity="1.000000" stroke="none" 
	d="
M715.250549,35.340416 
	C723.769348,37.797440 724.457703,38.431362 723.866577,45.790966 
	C723.706970,47.778206 722.369812,50.180553 720.808533,51.457321 
	C714.002258,57.023232 706.886414,62.208599 699.939087,67.604431 
	C695.726929,70.875961 691.159241,70.774963 687.656189,67.164543 
	C684.583618,63.997841 684.453735,57.605003 688.066528,54.588154 
	C695.447693,48.424656 703.142883,42.632587 710.812195,36.824154 
	C711.885803,36.011055 713.543640,35.969288 715.250549,35.340416 
z"/>
<path fill="#17B59D" opacity="1.000000" stroke="none" 
	d="
M896.868286,465.622253 
	C887.654358,471.509003 878.832703,477.358948 869.659424,482.592560 
	C865.920776,484.725586 861.017883,482.201233 859.052002,478.222931 
	C856.896362,473.860535 857.895386,469.107452 862.082642,466.525970 
	C869.697449,461.831421 877.523499,457.480438 885.236328,452.943481 
	C888.565247,450.985321 892.278076,450.099792 895.094177,452.908661 
	C897.079895,454.889252 898.081909,458.106598 898.836304,460.953705 
	C899.160522,462.177368 897.744507,463.862183 896.868286,465.622253 
z"/>
<path fill="#17B59D" opacity="1.000000" stroke="none" 
	d="
M142.701385,466.293213 
	C137.567368,463.377197 132.660110,460.814362 127.943947,457.938232 
	C123.924408,455.486969 122.658249,450.550659 124.732292,446.816345 
	C127.178513,442.411926 131.550720,440.402222 135.868652,442.495453 
	C144.370392,446.616760 152.910721,450.768311 160.942032,455.708862 
	C165.752319,458.668030 167.339172,462.576843 164.279907,468.283905 
	C162.255386,472.060638 156.605713,473.246765 151.765213,470.917175 
	C148.821960,469.500641 145.927444,467.982849 142.701385,466.293213 
z"/>
<path fill="#17B59D" opacity="1.000000" stroke="none" 
	d="
M943.208130,60.724289 
	C938.594360,58.406155 936.518799,55.042313 936.999756,50.174320 
	C937.606201,44.035305 945.308350,40.270752 950.465088,44.139385 
	C958.309204,50.024109 965.768921,56.435940 973.210938,62.834423 
	C975.885437,65.133858 975.741882,72.695267 973.311584,75.115257 
	C971.035339,77.381851 964.317566,78.395973 961.209229,75.753593 
	C955.346497,70.769798 949.387817,65.898827 943.208130,60.724289 
z"/>
<path fill="#17B59D" opacity="1.000000" stroke="none" 
	d="
M642.224487,390.551147 
	C639.959412,384.675323 641.275330,380.652954 645.813721,378.670013 
	C650.808350,376.487732 655.807617,378.207123 658.409180,382.834442 
	C662.476074,390.068298 666.626343,397.255554 670.779175,404.440643 
	C673.261353,408.735382 672.267639,414.621613 668.575806,417.080688 
	C663.655518,420.358002 658.933594,419.521210 655.713989,414.215179 
	C651.074097,406.568237 646.823792,398.684875 642.224487,390.551147 
z"/>
<path fill="#17B59D" opacity="1.000000" stroke="none" 
	d="
M883.066528,614.007446 
	C879.932373,611.747742 877.563660,609.626099 877.897766,605.387939 
	C878.438843,598.526245 883.926270,594.935181 890.443237,597.883240 
	C898.473145,601.515808 906.437561,605.296631 914.378296,609.121399 
	C919.314514,611.499023 921.120544,616.269043 919.031921,620.852783 
	C916.731506,625.901245 912.207031,627.728455 906.846130,625.295959 
	C898.968567,621.721558 891.233032,617.834045 883.066528,614.007446 
z"/>
<path fill="#17B59D" opacity="1.000000" stroke="none" 
	d="
M666.267761,76.238159 
	C673.130432,69.552788 680.683655,70.380714 683.425476,77.952431 
	C685.350159,83.267433 681.075012,86.367279 678.516235,89.906036 
	C674.499084,95.461868 670.077515,100.723541 665.981018,106.224297 
	C663.094421,110.100357 657.013794,111.455032 652.741577,108.912476 
	C648.977295,106.672226 647.635620,101.608017 650.439026,97.246025 
	C653.957642,91.771072 658.116882,86.706268 662.030762,81.487831 
	C663.306213,79.787193 664.679260,78.159798 666.267761,76.238159 
z"/>
<path fill="#17B59D" opacity="1.000000" stroke="none" 
	d="
M954.986145,645.050781 
	C948.213135,642.596130 941.825012,640.230591 935.475098,637.766602 
	C927.729126,634.761047 925.380798,629.670654 928.826965,623.561707 
	C930.996155,619.716248 935.846802,618.508240 941.049011,620.525330 
	C948.610107,623.457214 956.184631,626.355469 963.724487,629.341125 
	C969.528564,631.639282 971.700500,636.404602 969.576355,641.907043 
	C967.850891,646.376831 963.540649,647.865784 957.647400,646.003418 
	C956.875793,645.759521 956.140198,645.401367 954.986145,645.050781 
z"/>
<path fill="#17B59D" opacity="1.000000" stroke="none" 
	d="
M857.236084,579.746704 
	C860.728821,581.899658 864.102783,583.582520 867.137085,585.742493 
	C871.246094,588.667480 872.207031,593.637756 869.802795,597.485657 
	C867.186340,601.673157 862.569458,602.984009 857.962219,600.428894 
	C850.001282,596.013855 842.182495,591.342896 834.286621,586.809937 
	C830.526184,584.651123 828.766907,581.031555 830.268982,577.371399 
	C831.400146,574.614929 834.471802,572.429382 837.114685,570.627991 
	C838.193237,569.892822 840.660217,570.377136 842.081604,571.109619 
	C847.139282,573.716064 852.018860,576.668030 857.236084,579.746704 
z"/>
<path fill="#17B59D" opacity="1.000000" stroke="none" 
	d="
M1006.785583,101.292778 
	C1008.073181,103.549149 1009.091431,105.541451 1010.136658,107.519508 
	C1012.553528,112.093590 1009.988770,115.261810 1006.683594,117.585747 
	C1003.089844,120.112541 998.902100,119.915558 996.025330,116.401627 
	C991.084167,110.366257 986.691772,103.885147 981.902832,97.720177 
	C979.503601,94.631569 975.736633,91.974113 977.159424,87.557671 
	C978.013123,84.907997 979.979675,81.536774 982.252563,80.711731 
	C984.801331,79.786522 989.398376,80.274384 991.114075,82.059792 
	C996.738647,87.913155 1001.459961,94.634529 1006.785583,101.292778 
z"/>
<path fill="#17B59D" opacity="1.000000" stroke="none" 
	d="
M1010.344482,338.870758 
	C1010.595947,342.409119 1011.682373,346.262665 1010.326599,348.822845 
	C1006.299011,356.427795 1001.380188,363.569244 996.673035,370.802856 
	C993.425842,375.792877 988.750305,377.286041 984.713928,374.903320 
	C979.722961,371.957062 978.521912,367.321106 981.756470,361.760071 
	C986.010925,354.445312 990.462341,347.239502 995.013672,340.104614 
	C999.179321,333.574402 1004.285950,333.149078 1010.344482,338.870758 
z"/>
<path fill="#17B59D" opacity="1.000000" stroke="none" 
	d="
M1014.523682,646.230469 
	C1020.799072,648.467468 1023.526917,653.323242 1021.752869,658.617004 
	C1020.248291,663.106506 1015.615417,665.082031 1009.893005,663.421143 
	C1001.637878,661.025208 993.404175,658.547729 985.213379,655.941284 
	C979.902588,654.251282 977.535522,649.203430 979.165649,643.646545 
	C980.333069,639.666748 984.884155,637.560181 989.859314,638.956970 
	C997.984192,641.238098 1006.062073,643.686401 1014.523682,646.230469 
z"/>
<path fill="#17B59D" opacity="1.000000" stroke="none" 
	d="
M90.973656,435.997528 
	C87.250702,433.631744 83.656586,431.609039 80.587730,428.974457 
	C76.260292,425.259430 75.986137,420.716644 79.251122,416.397095 
	C81.180962,413.843933 87.125862,412.835114 90.628456,414.943146 
	C98.562363,419.718231 106.437378,424.607849 114.135155,429.751953 
	C118.319199,432.548004 119.205673,437.633301 116.804985,441.481018 
	C114.249458,445.576874 108.708313,447.191589 104.380745,444.659088 
	C99.893562,442.033142 95.673706,438.950439 90.973656,435.997528 
z"/>
<path fill="#17B59D" opacity="1.000000" stroke="none" 
	d="
M741.570801,38.972740 
	C734.705811,38.967445 731.773926,37.031578 730.429626,31.908903 
	C729.400452,27.987062 731.679565,23.874834 737.109070,21.513081 
	C745.124512,18.026476 753.316406,14.930886 761.508545,11.870790 
	C766.059753,10.170733 771.225586,12.480750 772.804810,16.547066 
	C774.457581,20.802458 772.363098,26.057638 767.963684,27.972334 
	C759.343384,31.724098 750.647644,35.302414 741.570801,38.972740 
z"/>
<path fill="#17B59D" opacity="1.000000" stroke="none" 
	d="
M773.652527,506.709290 
	C780.376465,504.667236 786.679626,502.482208 793.155762,501.117859 
	C797.829346,500.133301 800.444763,502.985321 801.270081,507.592316 
	C802.008850,511.716614 800.888062,515.366577 797.058777,516.864197 
	C787.683594,520.530884 778.160645,523.865234 768.551392,526.866638 
	C764.310303,528.191345 759.000122,524.227173 758.041687,519.908020 
	C757.078125,515.565552 759.460999,511.558472 764.046814,509.958191 
	C767.113403,508.888062 770.218140,507.927368 773.652527,506.709290 
z"/>
<path fill="#17B59D" opacity="1.000000" stroke="none" 
	d="
M232.685547,488.306671 
	C241.561203,491.650635 250.091202,494.802429 258.640594,497.900665 
	C264.290985,499.948273 267.243286,504.607391 265.825043,509.383545 
	C264.481781,513.907043 259.103271,516.537476 253.562927,514.712769 
	C244.933334,511.870514 236.437622,508.613770 227.928131,505.418396 
	C223.962570,503.929260 223.050797,500.679138 222.911041,496.705719 
	C222.768066,492.641296 225.252396,490.747467 228.138565,489.100067 
	C229.341629,488.413361 230.933197,488.407318 232.685547,488.306671 
z"/>
<path fill="#17B59D" opacity="1.000000" stroke="none" 
	d="
M1042.806885,235.571136 
	C1042.964722,240.602417 1043.361206,245.297516 1042.896118,249.905640 
	C1042.293945,255.870209 1041.142822,261.792877 1039.972046,267.682739 
	C1038.788574,273.637054 1034.211670,277.003815 1029.189209,275.962402 
	C1024.500244,274.990143 1022.160828,270.592651 1022.936951,264.736786 
	C1024.051514,256.327789 1024.989380,247.895340 1026.002197,239.472839 
	C1026.449341,235.754593 1028.274780,233.337952 1031.914429,231.882050 
	C1036.601074,230.007263 1039.725708,232.012939 1042.806885,235.571136 
z"/>
<path fill="#17B59D" opacity="1.000000" stroke="none" 
	d="
M803.988281,566.998413 
	C799.160706,563.633057 794.733398,560.281250 790.214905,557.057434 
	C785.242920,553.510071 783.205200,547.519958 785.819580,543.740723 
	C788.971313,539.184692 794.476929,538.662903 800.116272,542.582214 
	C807.067078,547.412964 813.979553,552.303467 820.795349,557.322021 
	C824.258301,559.871948 825.298950,566.414734 823.013794,569.453003 
	C820.232605,573.150757 814.654175,574.308289 810.613159,571.801208 
	C808.398621,570.427246 806.428589,568.658936 803.988281,566.998413 
z"/>
<path fill="#17B59D" opacity="1.000000" stroke="none" 
	d="
M1015.041260,155.911942 
	C1012.656982,149.982040 1010.372742,144.422836 1007.952881,138.923294 
	C1005.265869,132.816589 1006.979370,128.267303 1012.698303,125.679031 
	C1016.795166,123.824852 1021.074585,125.581596 1022.273376,128.239700 
	C1026.778320,138.228699 1030.675537,148.568863 1033.772339,159.080353 
	C1035.126221,163.675903 1031.663940,167.258820 1027.561523,167.974258 
	C1023.402222,168.699631 1018.688171,165.962006 1017.041016,161.801697 
	C1016.325867,159.995331 1015.731079,158.141296 1015.041260,155.911942 
z"/>
<path fill="#17B59D" opacity="1.000000" stroke="none" 
	d="
M344.778748,541.044800 
	C340.557922,540.167664 336.663757,539.623352 332.992432,538.406616 
	C327.916321,536.724304 325.440125,531.297241 327.172180,526.627441 
	C328.676788,522.570740 333.525818,520.590820 338.463562,521.731934 
	C346.522278,523.594360 354.614441,525.315491 362.708099,527.022095 
	C368.458344,528.234497 372.025665,532.844849 370.956146,537.859192 
	C369.825104,543.161926 364.748505,545.919983 358.890625,544.447937 
	C354.334106,543.302856 349.767090,542.199585 344.778748,541.044800 
z"/>
<path fill="#17B59D" opacity="1.000000" stroke="none" 
	d="
M1370.169312,704.000000 
	C1377.959106,704.662109 1385.320435,705.077698 1392.601929,706.075195 
	C1397.261719,706.713562 1399.597290,710.858887 1398.994019,716.031311 
	C1398.507812,720.202148 1395.449463,723.145569 1390.908203,722.933289 
	C1381.065796,722.473206 1371.227539,721.793396 1361.413940,720.909912 
	C1357.046997,720.516846 1353.252075,714.849182 1354.093994,710.750488 
	C1355.149536,705.611450 1359.981079,702.182007 1364.943481,703.068115 
	C1366.536011,703.352417 1368.119385,703.687927 1370.169312,704.000000 
z"/>
<path fill="#17B59D" opacity="1.000000" stroke="none" 
	d="
M210.708282,479.300323 
	C215.056488,482.847321 216.159592,487.107117 214.000549,491.019989 
	C211.791153,495.024109 207.798706,496.742981 203.325043,494.918823 
	C194.925552,491.493805 186.591721,487.879822 178.392242,484.002533 
	C173.343414,481.615143 171.169083,475.402557 173.354584,471.209991 
	C175.454849,467.180939 181.438171,465.843475 186.463043,468.166107 
	C194.420700,471.844452 202.414627,475.444336 210.708282,479.300323 
z"/>
<path fill="#17B59D" opacity="1.000000" stroke="none" 
	d="
M646.993652,137.032196 
	C644.630859,142.257721 642.214478,147.055130 640.085815,151.976974 
	C637.984070,156.836456 633.521790,159.256927 628.650085,157.836258 
	C624.325745,156.575211 621.302307,151.378906 623.320129,146.656952 
	C627.343628,137.241333 631.921387,128.041611 636.705505,118.982582 
	C638.540161,115.508507 644.913757,115.040817 648.774048,117.353081 
	C651.697998,119.104469 653.185486,125.006073 651.401001,129.018829 
	C650.216980,131.681442 648.528625,134.119812 646.993652,137.032196 
z"/>
<path fill="#17B59D" opacity="1.000000" stroke="none" 
	d="
M1209.056641,704.999084 
	C1205.849976,704.664429 1203.100464,704.271301 1200.338623,704.009705 
	C1195.283325,703.530945 1190.517456,698.375000 1191.068115,693.896667 
	C1191.690674,688.833679 1196.718994,685.233398 1202.269409,686.029114 
	C1211.132446,687.299805 1219.982178,688.664429 1228.834839,690.006348 
	C1233.862671,690.768494 1236.321167,694.011108 1235.998779,699.397095 
	C1235.726685,703.941223 1232.730225,707.143555 1228.041748,706.911072 
	C1221.847534,706.603882 1215.684692,705.666443 1209.056641,704.999084 
z"/>
<path fill="#17B59D" opacity="1.000000" stroke="none" 
	d="
M1090.639648,667.168335 
	C1099.010376,668.521667 1106.989746,669.975708 1114.958130,671.488770 
	C1117.017944,671.879883 1119.044800,672.448242 1121.083374,672.949097 
	C1126.341064,674.240845 1128.605957,677.536987 1127.994141,682.992310 
	C1127.489746,687.491333 1124.172485,690.525513 1118.967529,689.878357 
	C1111.410034,688.938538 1103.954102,687.178955 1096.458984,685.747253 
	C1095.508667,685.565735 1094.596558,685.116333 1093.644287,685.025024 
	C1088.808472,684.561096 1085.121460,682.501404 1084.071777,677.477539 
	C1082.999146,672.342712 1085.412598,669.007263 1090.639648,667.168335 
z"/>
<path fill="#17B59D" opacity="1.000000" stroke="none" 
	d="
M1070.723511,677.088379 
	C1065.228882,676.802856 1060.048950,676.846558 1055.062012,675.887207 
	C1049.037842,674.728210 1043.133057,672.861450 1037.259155,671.035156 
	C1032.130737,669.440735 1029.773071,664.866821 1031.106567,659.833008 
	C1032.107422,656.054016 1038.004639,653.022339 1042.362915,654.182739 
	C1050.666138,656.393372 1058.872681,659.033447 1067.262207,660.826477 
	C1071.659668,661.766174 1074.387207,664.421570 1074.648315,668.023499 
	C1074.857178,670.906433 1072.398438,673.982788 1070.723511,677.088379 
z"/>
<path fill="#17B59D" opacity="1.000000" stroke="none" 
	d="
M443.280151,557.999756 
	C436.792603,556.930786 433.081421,552.549377 434.120728,547.695801 
	C435.333435,542.032532 439.545166,539.924561 445.804291,540.775208 
	C453.919220,541.878235 462.118195,542.468079 470.300781,542.922180 
	C474.165375,543.136719 477.112000,544.330383 478.439545,548.007996 
	C479.743439,551.620056 479.535797,555.298218 476.398926,557.936462 
	C475.049438,559.071411 472.939423,559.975830 471.227386,559.893555 
	C462.046478,559.452148 452.882111,558.666626 443.280151,557.999756 
z"/>
<path fill="#17B59D" opacity="1.000000" stroke="none" 
	d="
M626.685547,316.801453 
	C618.156189,320.534119 613.869629,318.562225 611.986755,309.807068 
	C610.044495,300.775574 608.407227,291.661499 607.109009,282.516479 
	C606.550171,278.579712 610.874512,274.489777 614.987061,274.060364 
	C618.650513,273.677826 623.281799,277.609802 624.021606,281.502808 
	C625.656799,290.107971 627.024292,298.793518 629.279053,307.238495 
	C630.342224,311.220764 629.246338,313.811371 626.685547,316.801453 
z"/>
<path fill="#17B59D" opacity="1.000000" stroke="none" 
	d="
M274.944458,512.065857 
	C277.554810,507.059479 281.644043,505.516541 287.606171,507.304901 
	C295.656128,509.719421 303.656494,512.304993 311.640686,514.931091 
	C316.787933,516.624084 319.230682,520.990417 317.783966,525.517761 
	C316.317474,530.107056 311.014130,533.075012 306.387695,531.694092 
	C298.015015,529.194885 289.657623,526.638306 281.341553,523.957703 
	C275.344971,522.024658 273.148071,517.924133 274.944458,512.065857 
z"/>
<path fill="#17B59D" opacity="1.000000" stroke="none" 
	d="
M1013.304688,299.314758 
	C1014.327332,296.678864 1015.153320,294.385864 1015.935730,292.078094 
	C1017.985168,286.033264 1022.158386,283.538666 1027.475708,285.203003 
	C1031.835327,286.567566 1034.599365,291.718140 1032.817993,297.053680 
	C1029.941772,305.668701 1026.626831,314.163635 1022.996460,322.491058 
	C1020.705627,327.745819 1016.216614,329.273621 1011.746887,327.274445 
	C1006.921326,325.116119 1005.123840,320.878693 1007.019775,315.593842 
	C1008.939453,310.242523 1011.057251,304.962311 1013.304688,299.314758 
z"/>
<path fill="#17B59D" opacity="1.000000" stroke="none" 
	d="
M860.114807,22.946091 
	C854.413696,21.938671 849.153809,20.926701 843.875854,20.020008 
	C839.736084,19.308844 835.907043,15.147008 836.035461,11.339920 
	C836.184204,6.932458 840.532410,2.497541 845.178772,3.111311 
	C855.162781,4.430157 865.100525,6.186417 874.983887,8.135322 
	C878.694580,8.867023 881.601074,14.196033 880.965637,17.706213 
	C880.072144,22.642149 877.198608,25.244390 872.087524,24.916159 
	C868.215820,24.667522 864.392883,23.657898 860.114807,22.946091 
z"/>
<path fill="#17B59D" opacity="1.000000" stroke="none" 
	d="
M552.435059,545.000183 
	C561.289124,544.666626 569.688782,544.209839 578.094238,544.040833 
	C584.320618,543.915588 587.762512,546.784363 587.999329,551.784546 
	C588.267822,557.451172 584.894836,561.563110 579.057190,561.934814 
	C570.337585,562.490112 561.595581,562.847656 552.859497,562.933899 
	C547.133301,562.990479 542.916748,559.140137 543.086670,554.176697 
	C543.227417,550.064270 545.657288,545.268494 552.435059,545.000183 
z"/>
<path fill="#17B59D" opacity="1.000000" stroke="none" 
	d="
M1027.025513,215.555008 
	C1026.004028,205.027130 1024.859497,194.928940 1024.067139,184.803238 
	C1023.730652,180.503326 1026.852417,177.430420 1031.136841,177.004700 
	C1036.134521,176.508102 1040.340454,178.913879 1040.896240,183.235367 
	C1042.128784,192.818649 1043.192383,202.434555 1043.918457,212.067780 
	C1044.311646,217.287079 1041.490234,221.032593 1036.664917,221.563156 
	C1032.497437,222.021393 1028.630005,220.619568 1027.025513,215.555008 
z"/>
<path fill="#17B59D" opacity="1.000000" stroke="none" 
	d="
M609.047852,191.165710 
	C610.726746,184.627533 612.276550,178.490952 614.044189,172.417816 
	C615.181274,168.511200 619.868530,165.297836 623.322571,166.173370 
	C628.032959,167.367371 632.055725,170.970032 631.013000,175.408066 
	C629.192627,183.155548 627.440430,190.919174 625.689941,198.682861 
	C625.367920,200.111115 625.247620,201.584473 624.934570,203.015198 
	C623.678589,208.756195 618.912598,211.462051 612.872498,209.900558 
	C608.874939,208.867096 606.770569,204.344894 607.811829,199.337540 
	C608.342834,196.783707 608.619507,194.177002 609.047852,191.165710 
z"/>
<path fill="#17B59D" opacity="1.000000" stroke="none" 
	d="
M894.797241,33.338974 
	C889.120483,29.643991 887.639038,25.867086 889.900391,21.357599 
	C892.289185,16.594070 896.925537,14.782747 902.280518,17.179672 
	C910.605957,20.906172 918.796021,24.946650 926.948730,29.042620 
	C930.585205,30.869589 932.663391,36.567719 930.765381,40.229218 
	C928.907104,43.814049 925.764893,46.260876 921.303528,45.067783 
	C918.680420,44.366287 916.151611,43.241051 913.662537,42.123508 
	C907.446960,39.332855 901.278198,36.437748 894.797241,33.338974 
z"/>
<path fill="#17B59D" opacity="1.000000" stroke="none" 
	d="
M677.803040,531.951538 
	C680.755310,531.281006 683.242065,530.440491 685.797424,530.054382 
	C690.983154,529.270874 695.146301,531.962280 695.971436,536.368408 
	C697.079529,542.285706 695.408569,545.642883 689.624512,547.013611 
	C680.167053,549.255005 670.621460,551.199707 661.031128,552.769653 
	C656.898987,553.446045 652.589355,549.356079 652.013916,545.335266 
	C651.358276,540.754028 654.481140,535.983826 659.070923,535.087341 
	C665.140442,533.901917 671.266663,533.006958 677.803040,531.951538 
z"/>
<path fill="#17B59D" opacity="1.000000" stroke="none" 
	d="
M740.059082,517.007141 
	C745.335571,516.920166 748.300842,519.284668 748.955444,524.063660 
	C749.766479,529.984741 748.060669,533.153809 742.658630,534.629272 
	C733.894958,537.023010 725.023132,539.042297 716.148376,540.999756 
	C710.847229,542.168884 706.820923,539.851257 706.028809,535.629700 
	C704.834961,529.266724 707.126953,525.424805 712.791260,523.988403 
	C721.753479,521.715637 730.690369,519.342834 740.059082,517.007141 
z"/>
<path fill="#17B59D" opacity="1.000000" stroke="none" 
	d="
M527.693237,545.896851 
	C532.815430,548.620850 534.370361,551.985168 532.976929,557.075378 
	C531.736694,561.606262 528.352905,563.139038 523.986816,562.992554 
	C514.741882,562.682434 505.493866,562.419861 496.255920,561.960754 
	C491.324432,561.715637 488.800354,558.123962 489.000427,552.185364 
	C489.141357,548.001526 492.218048,545.032593 496.598785,545.012512 
	C505.577271,544.971252 514.556274,544.969971 523.534485,545.034790 
	C524.790039,545.043884 526.042175,545.519653 527.693237,545.896851 
z"/>
<path fill="#17B59D" opacity="1.000000" stroke="none" 
	d="
M600.764648,557.272705 
	C597.557068,553.879333 597.239807,550.379272 598.841858,546.538147 
	C600.546265,542.451721 603.974976,542.237305 607.785645,541.903503 
	C615.266479,541.248352 622.722656,540.188904 630.144592,539.015808 
	C638.117615,537.755554 642.687378,541.658447 641.979309,549.588318 
	C641.512085,554.821411 639.256836,555.833313 632.634277,556.895264 
	C624.407837,558.214355 616.075684,558.983215 607.759338,559.558838 
	C605.577087,559.709900 603.284546,558.267822 600.764648,557.272705 
z"/>
<path fill="#17B59D" opacity="1.000000" stroke="none" 
	d="
M642.740112,369.079559 
	C635.508484,371.123627 631.839722,369.795380 629.523438,363.962311 
	C626.471130,356.275604 623.641602,348.494080 620.943848,340.674866 
	C618.544067,333.719482 620.282776,329.912140 626.349060,327.914001 
	C631.153503,326.331451 635.349182,329.083282 637.536377,334.993042 
	C640.297180,342.452942 643.196106,349.862122 646.080994,357.275482 
	C647.880615,361.899994 647.552246,365.936157 642.740112,369.079559 
z"/>
<path fill="#17B59D" opacity="1.000000" stroke="none" 
	d="
M1307.437134,699.000244 
	C1317.740723,699.673401 1327.621094,700.090698 1337.435913,701.127991 
	C1342.357300,701.648132 1345.108032,706.016052 1344.880005,710.637878 
	C1344.632324,715.657410 1339.592041,718.825439 1334.569092,718.283997 
	C1325.583008,717.315308 1316.555054,716.730347 1307.543457,716.001343 
	C1303.129517,715.644165 1300.282349,712.814331 1300.001709,708.454651 
	C1299.657104,703.098999 1302.032837,699.883301 1307.437134,699.000244 
z"/>
<path fill="#17B59D" opacity="1.000000" stroke="none" 
	d="
M790.347839,21.996685 
	C785.008728,20.997774 781.587891,18.092873 782.233459,13.030334 
	C782.591980,10.218432 784.725647,6.736846 787.108826,5.309299 
	C789.993042,3.581650 793.960876,3.378193 797.505859,3.098304 
	C804.750854,2.526276 812.023865,2.210863 819.290955,2.057031 
	C822.996887,1.978582 826.752380,6.169672 826.994019,10.074823 
	C827.212097,13.601106 823.932434,18.532402 820.632507,18.917770 
	C810.695312,20.078238 800.729126,20.990292 790.347839,21.996685 
z"/>
<path fill="#17B59D" opacity="1.000000" stroke="none" 
	d="
M396.187683,533.946716 
	C404.071594,535.006836 411.528656,535.893616 418.930725,537.113708 
	C422.022980,537.623352 425.724182,543.403198 424.906006,546.432800 
	C423.874115,550.253540 422.428528,554.465576 417.339386,553.923035 
	C406.793976,552.799011 396.268372,551.414124 385.790253,549.779663 
	C382.615417,549.284485 379.188293,543.233215 380.104767,540.273560 
	C381.345825,536.265625 383.127869,532.461182 388.461151,533.009155 
	C390.892090,533.258972 393.313110,533.605347 396.187683,533.946716 
z"/>
<path fill="#17B59D" opacity="1.000000" stroke="none" 
	d="
M1139.636475,692.141968 
	C1139.185791,688.465698 1137.967651,684.635559 1139.121704,681.756287 
	C1141.195801,676.581604 1146.579224,677.615906 1150.868042,678.154602 
	C1158.589355,679.124390 1166.231934,680.712952 1173.915527,681.994812 
	C1179.070435,682.854736 1182.797974,687.674500 1181.976929,692.526978 
	C1181.143066,697.455444 1176.643555,700.043152 1171.062256,699.098511 
	C1162.413696,697.634949 1153.716309,696.456116 1145.080566,694.924988 
	C1143.274902,694.604858 1141.647461,693.279053 1139.636475,692.141968 
z"/>
<path fill="#17B59D" opacity="1.000000" stroke="none" 
	d="
M1268.889160,712.000916 
	C1263.100952,711.338318 1257.736328,710.891785 1252.459595,709.952087 
	C1247.536011,709.075439 1245.479736,705.647034 1246.004395,700.190063 
	C1246.427124,695.792847 1249.547607,692.724365 1254.351562,693.085754 
	C1264.284912,693.832825 1274.205811,694.879089 1284.082764,696.176208 
	C1288.359985,696.737915 1290.510986,701.102539 1289.997070,706.645447 
	C1289.664307,710.233765 1286.285400,713.097046 1282.092773,712.957642 
	C1277.839600,712.816406 1273.597900,712.334473 1268.889160,712.000916 
z"/>
<path fill="#17B59D" opacity="1.000000" stroke="none" 
	d="
M604.000000,229.349777 
	C604.340149,223.264984 608.004578,219.794937 613.388000,220.001114 
	C618.203918,220.185562 620.994507,223.414032 620.998291,228.832840 
	C621.004639,237.992477 620.855530,247.155304 621.058411,256.310455 
	C621.166382,261.182739 618.624207,264.596893 612.563904,264.949890 
	C607.923950,265.220154 604.033752,261.140320 604.011475,256.288116 
	C603.971008,247.461761 604.000000,238.635056 604.000000,229.349777 
z"/>
<path fill="#FFFFFF" opacity="1.000000" stroke="none" 
	d="
M1473.632812,505.262512 
	C1492.506226,519.003540 1496.226318,542.809937 1482.724609,561.657104 
	C1471.135864,577.833740 1445.792236,582.158752 1429.449829,570.795105 
	C1410.646118,557.719971 1406.649170,533.579651 1417.952271,516.705383 
	C1430.280396,498.300873 1453.024780,491.810394 1473.632812,505.262512 
z"/>
</svg>