<svg version="1.1" id="Layer_1" xmlns="http://www.w3.org/2000/svg" xmlns:xlink="http://www.w3.org/1999/xlink" x="0px" y="0px"
	 width="100%" viewBox="0 0 1406 280" enable-background="new 0 0 1406 280" xml:space="preserve">
<path fill="#FFFFFF" opacity="1.000000" stroke="none"
	d="
M1041.000000,281.000000
	C694.000061,281.000000 347.500092,281.000000 1.000093,281.000000
	C1.000062,187.666718 1.000062,94.333435 1.000031,1.000118
	C469.666534,1.000079 938.333069,1.000079 1406.999756,1.000039
	C1406.999756,94.333214 1406.999756,187.666428 1406.999878,280.999817
	C1285.166626,281.000000 1163.333374,281.000000 1041.000000,281.000000
M42.190617,206.000000
	C43.596519,206.000000 45.002419,206.000000 47.926819,206.000000
	C45.194866,207.742294 43.764114,208.654755 41.782330,209.918625
	C45.772793,211.348419 49.308632,212.966583 53.018936,213.860947
	C58.342808,215.144241 59.813896,211.138672 61.380531,207.104034
	C58.134171,227.743439 51.362862,247.093658 42.281666,265.741730
	C50.394806,267.236176 54.520096,261.991180 58.934399,254.357742
	C67.089943,240.254700 75.316589,226.192276 83.384689,212.039444
	C85.989471,207.470230 89.861427,205.908066 94.834648,205.978333
	C101.165092,206.067780 107.591347,206.672318 113.802711,205.807693
	C119.814842,204.970810 125.783905,202.986176 131.434631,200.679489
	C135.345123,199.083206 134.882080,195.514450 130.927887,193.463455
	C125.341568,190.565933 119.592117,188.557175 113.087555,188.929947
	C107.274811,189.263077 101.425552,189.101639 95.596794,188.967590
	C90.932693,188.860306 86.559235,187.837753 83.914284,183.403427
	C81.243645,178.925995 78.619308,174.420883 75.986298,169.921097
	C68.990250,157.964920 62.063644,145.967407 54.972870,134.067703
	C52.589733,130.068329 46.404919,127.740921 41.986412,128.863235
	C51.571266,147.426147 57.899239,167.051727 61.592888,187.808990
	C59.767902,184.010666 58.527889,179.621017 53.047577,181.032852
	C49.277950,182.003998 45.586357,183.278030 41.072544,184.657272
	C43.305119,185.920135 44.464420,186.575912 45.759533,187.308502
	C40.785263,188.258881 36.179840,189.027481 31.626465,190.032028
	C22.312763,192.086761 22.324274,192.138977 18.937008,182.849747
	C15.303191,172.884399 12.736328,171.398178 2.767009,173.817078
	C5.250306,180.864685 7.722420,187.880569 10.309295,195.222137
	C7.661016,196.282639 4.236153,197.441238 9.517830,199.495270
	C9.756715,199.588165 9.477764,201.534531 9.136575,202.511658
	C7.061584,208.454224 4.898557,214.366074 2.766507,220.283768
	C11.797245,223.468506 14.417711,222.375046 17.974827,213.993637
	C19.609606,210.141739 20.979946,206.177612 22.246626,202.851456
	C28.816420,203.936234 35.065899,204.968124 42.190617,206.000000
M1333.996216,97.440331
	C1341.887939,117.504112 1354.190796,134.744354 1368.523438,152.372482
	C1377.231201,139.344864 1385.927612,127.531151 1393.316162,114.949402
	C1400.945068,101.958435 1407.191650,88.283638 1406.102051,72.389664
	C1405.480713,63.326431 1399.283325,54.065720 1390.698608,51.007042
	C1377.689453,46.371906 1364.365967,45.946026 1351.144897,49.179119
	C1339.842896,51.942944 1331.657349,58.150063 1329.746826,71.026169
	C1328.377197,80.257019 1331.003662,88.358421 1333.996216,97.440331
M1365.011963,161.004486
	C1355.765625,163.999573 1352.608765,172.776245 1357.940063,180.665695
	C1360.373901,184.267426 1367.008301,186.236725 1372.173340,184.890472
	C1376.098877,183.867310 1379.533081,178.829468 1380.076050,174.593735
	C1381.119019,166.458435 1375.351318,159.495163 1365.011963,161.004486
M376.485016,38.012672
	C375.393982,39.432636 374.287720,40.841206 373.214996,42.274864
	C370.702881,45.632168 371.819031,48.705074 374.702362,50.798626
	C377.777802,53.031639 380.507355,52.028587 383.095825,48.992870
	C387.324005,44.034039 392.431824,39.798267 396.414062,34.671379
	C397.795746,32.892559 397.816162,29.010025 396.880310,26.738464
	C395.671143,23.803482 392.408936,22.486824 389.532532,25.089710
	C385.178955,29.029375 381.160675,33.339588 376.485016,38.012672
M910.368164,154.929260
	C908.627197,156.401321 906.036682,157.562698 905.356506,159.422668
	C904.471497,161.842636 904.025818,166.174133 905.345642,167.222717
	C907.144775,168.652069 911.424316,168.860855 913.517639,167.650772
	C919.105042,164.420807 923.967773,159.966217 929.363586,156.365524
	C932.820618,154.058594 934.184204,151.404266 931.890625,147.866592
	C929.675171,144.449570 926.221924,144.011688 922.906616,146.086441
	C918.783569,148.666595 914.934021,151.683640 910.368164,154.929260
M953.928162,98.057770
	C948.095398,102.784554 948.464478,106.823883 954.829102,110.429062
	C960.048767,113.385643 965.161438,116.543015 970.210876,119.783875
	C973.801758,122.088669 976.974060,121.564201 979.119141,118.193436
	C981.155518,114.993469 980.075745,112.057739 976.794373,109.935020
	C972.837463,107.375290 969.132874,104.386497 965.028809,102.105728
	C961.826721,100.326294 958.181274,99.344818 953.928162,98.057770
M666.074219,165.230545
	C667.907410,170.083450 671.132080,171.152939 675.819641,169.105774
	C681.599792,166.581467 687.471985,164.265961 693.322388,161.904907
	C697.254883,160.317871 698.838989,157.259232 697.398743,153.859131
	C695.715210,149.884781 693.088379,148.937317 688.619690,150.826859
	C683.245117,153.099442 678.011597,155.759995 672.514038,157.667587
	C668.941467,158.907242 666.735535,160.793411 666.074219,165.230545
M459.266846,147.720688
	C463.367065,148.786438 466.477844,147.549011 469.316101,144.308670
	C473.038483,140.058929 477.464050,136.422653 481.157837,132.151215
	C483.524292,129.414658 484.474152,125.919304 481.311737,122.866920
	C478.399841,120.056320 475.060089,120.739006 472.560333,123.145935
	C467.803192,127.726303 463.561859,132.837433 458.912994,137.536926
	C455.665680,140.819656 455.059204,143.859985 459.266846,147.720688
M934.314636,89.006767
	C928.958984,87.705444 923.613159,86.361702 918.244568,85.116119
	C913.884583,84.104530 909.672607,86.140152 909.026794,89.457413
	C908.285156,93.266418 911.039612,96.005127 915.971252,97.045296
	C921.994629,98.315697 927.981812,99.812744 933.900269,101.506386
	C937.600586,102.565300 939.945984,101.355743 941.419373,98.081696
	C943.042297,94.475357 940.997375,92.119614 938.320801,90.200661
	C937.438965,89.568405 936.205017,89.427223 934.314636,89.006767
M913.399719,270.078491
	C915.445862,271.093170 917.534119,272.031982 919.528625,273.139679
	C922.828064,274.972107 925.787598,274.161835 927.703064,271.345978
	C929.562073,268.613129 927.562256,263.859680 924.654358,262.233673
	C919.158691,259.160675 913.773682,255.888916 908.260010,252.849716
	C906.788513,252.038589 904.735413,250.983963 903.452209,251.443954
	C901.665039,252.084579 899.472229,253.831116 899.065857,255.497559
	C898.597900,257.416534 899.179077,260.594543 900.550964,261.765259
	C904.230164,264.904846 908.574707,267.264832 913.399719,270.078491
M637.933655,183.562576
	C643.127258,181.706360 648.310181,179.819702 653.517944,178.004120
	C657.277161,176.693542 659.211975,173.667404 657.698792,170.380981
	C656.755554,168.332474 652.828003,165.858063 650.968933,166.347031
	C643.463623,168.321030 636.151855,171.153671 628.951538,174.114288
	C625.132751,175.684525 624.818420,180.055145 627.606995,183.160370
	C630.633850,186.530975 633.934021,184.588013 637.933655,183.562576
M829.697876,102.901321
	C836.950073,101.260887 844.198059,99.601730 851.456116,97.987747
	C855.186401,97.158249 857.458130,94.850288 856.837646,91.089256
	C856.227966,87.393608 853.322571,85.362984 849.608704,86.094635
	C842.633423,87.468803 835.660461,89.027405 828.888428,91.152679
	C826.909058,91.773872 824.705383,94.356483 824.214355,96.422615
	C823.459839,99.598083 825.526184,101.937187 829.697876,102.901321
M767.665039,126.066643
	C768.254028,125.789719 768.826965,125.469948 769.434509,125.242645
	C774.499329,123.347610 776.414490,120.117912 774.933411,115.934715
	C773.941467,113.133102 769.763550,112.335594 765.480042,114.210976
	C759.537109,116.812881 753.477966,119.203934 747.750488,122.220665
	C744.787720,123.781242 742.764282,126.577423 744.822632,130.425690
	C746.690430,133.917587 749.229797,134.839600 752.874634,133.051132
	C757.541321,130.761215 762.301086,128.661011 767.665039,126.066643
M244.582367,205.143585
	C253.151230,205.380280 261.734589,205.945602 270.276367,205.568665
	C271.929779,205.495712 274.452179,201.875809 274.740479,199.654190
	C275.153534,196.470764 272.535797,194.163773 269.174103,194.072083
	C262.023041,193.876999 254.844467,193.699692 247.712250,194.116089
	C241.995102,194.449875 240.135223,200.027374 244.582367,205.143585
M392.500092,155.999649
	C395.446289,158.615082 398.325043,161.311890 401.356201,163.824814
	C404.936554,166.792984 411.113770,165.118683 411.419952,160.648315
	C411.588898,158.181931 409.242981,155.176880 407.347198,153.013794
	C403.702606,148.855392 399.635498,145.056076 395.619629,141.238297
	C393.032196,138.778473 389.716797,137.627640 386.756714,139.984116
	C384.049988,142.138885 383.172699,145.284225 385.917084,148.411575
	C387.969879,150.750854 389.972931,153.133759 392.500092,155.999649
M944.012268,136.485336
	C939.222839,138.192398 940.486145,142.528076 941.531982,145.173752
	C942.135193,146.699921 946.593384,147.800568 948.955139,147.319382
	C955.090088,146.069519 960.967957,143.610367 967.060730,142.081635
	C971.019043,141.088440 973.319458,139.053879 972.869934,135.014236
	C972.415161,130.927444 968.807861,129.096191 964.265991,130.369217
	C957.732300,132.200592 951.237244,134.169830 944.012268,136.485336
M1010.386902,234.988449
	C1012.223206,233.744064 1015.169373,232.857208 1015.705139,231.193924
	C1018.127808,223.672775 1020.305115,215.999954 1021.515991,208.217621
	C1021.783142,206.500549 1018.052307,203.403778 1015.568298,202.369629
	C1014.495789,201.923157 1010.908630,204.743500 1010.203247,206.705231
	C1008.024231,212.765030 1006.828125,219.169540 1004.972900,225.357040
	C1003.250488,231.101486 1003.838318,232.619064 1010.386902,234.988449
M436.486847,152.006073
	C432.329926,153.829376 428.167694,155.640671 424.017456,157.479080
	C419.220673,159.603897 417.735291,162.916916 419.979767,166.766266
	C422.357880,170.844772 426.145813,169.396881 429.108795,168.243591
	C435.018036,165.943527 440.569000,162.736725 446.432922,160.301788
	C450.604950,158.569397 450.512756,155.244720 449.828644,152.066177
	C449.048645,148.442261 445.656006,148.641846 442.896179,149.101593
	C440.874207,149.438446 438.997864,150.649536 436.486847,152.006073
M1301.570312,164.004059
	C1303.156128,164.331863 1305.105103,165.394440 1306.249512,164.828949
	C1308.390991,163.770859 1310.900024,162.081024 1311.658081,160.055878
	C1312.215332,158.567352 1310.695923,154.832642 1309.294067,154.323532
	C1301.535400,151.505692 1293.565308,149.236328 1285.587158,147.075974
	C1282.950928,146.362106 1280.429688,147.446045 1280.093384,150.565598
	C1279.762939,153.629318 1279.335938,156.829208 1283.685303,158.090775
	C1289.452637,159.763626 1295.069580,161.955795 1301.570312,164.004059
M803.710876,111.078842
	C806.203979,110.362289 808.824402,109.925606 811.160339,108.863388
	C814.632507,107.284431 816.127136,104.105560 814.688354,100.673019
	C813.406799,97.615593 810.716858,96.010498 806.970947,97.461830
	C800.775635,99.862152 794.421021,101.864960 788.289001,104.409683
	C785.099121,105.733421 782.045410,107.849556 783.671936,112.192619
	C785.156250,116.156181 788.465576,117.219780 793.073547,115.434952
	C796.399719,114.146652 799.703918,112.801537 803.710876,111.078842
M471.465210,15.975336
	C468.594330,14.440447 465.855927,12.120524 462.812683,11.606936
	C460.143799,11.156525 456.272186,11.920923 454.586029,13.708815
	C453.522614,14.836390 454.587311,19.992516 456.283630,21.330584
	C461.866211,25.734045 468.002930,29.541164 474.302704,32.864914
	C476.206512,33.869366 480.294769,33.497108 481.672760,32.085979
	C483.732971,29.976162 484.319885,26.334494 481.224548,23.772863
	C478.207214,21.275822 475.084076,18.906605 471.465210,15.975336
M986.750916,267.717041
	C992.548157,262.247864 998.674438,257.067383 1003.907227,251.103012
	C1005.187256,249.644058 1004.483032,244.754349 1002.928040,243.060516
	C1001.790100,241.820969 996.965027,242.227585 995.182129,243.651642
	C990.241943,247.597610 985.838135,252.287262 981.634705,257.047089
	C980.023071,258.872040 978.514343,261.791626 978.751648,264.021576
	C979.156494,267.825653 982.566223,268.442780 986.750916,267.717041
M1199.602905,138.154663
	C1207.378662,139.729874 1215.109497,141.635193 1222.954224,142.705246
	C1225.784790,143.091370 1228.561035,141.069687 1228.969360,137.512070
	C1229.377686,133.954681 1227.496338,131.784943 1224.271240,131.058670
	C1217.614380,129.559540 1210.902710,128.296768 1204.195435,127.032562
	C1201.021851,126.434418 1197.497314,127.116623 1196.689575,130.185165
	C1196.097656,132.433929 1198.009033,135.341614 1199.602905,138.154663
M370.062408,191.133804
	C371.640869,195.023026 374.179016,196.249527 378.443390,195.116791
	C384.853271,193.414093 391.457245,192.455231 397.910675,190.898117
	C401.506226,190.030563 403.763336,187.472855 402.747009,183.650330
	C401.703888,179.726959 398.500946,178.314621 394.656464,179.183136
	C388.193115,180.643311 381.816711,182.488937 375.352264,183.943634
	C371.768982,184.750000 369.863678,186.594986 370.062408,191.133804
M419.917908,191.421738
	C426.434357,194.280334 432.987640,197.058807 439.453125,200.028351
	C443.170746,201.735809 445.989777,200.518906 447.735718,197.348724
	C449.556580,194.042526 447.465851,190.756866 443.216003,188.952011
	C437.233856,186.411469 431.235870,183.883621 425.400604,181.031372
	C422.054382,179.395752 419.259430,180.267685 417.817780,182.986450
	C416.484436,185.500900 415.454163,188.952240 419.917908,191.421738
M488.837616,114.055847
	C490.373627,113.064186 492.847748,112.379868 493.290039,111.029877
	C495.755035,103.505882 498.088409,95.894440 499.673584,88.150536
	C500.229492,85.435081 498.129303,81.827621 494.671967,82.269844
	C492.300018,82.573250 489.059967,84.695267 488.227417,86.802292
	C485.803497,92.936623 484.440857,99.485641 482.574005,105.846191
	C481.064270,110.989914 482.577972,113.377739 488.837616,114.055847
M487.919464,198.398605
	C486.417938,197.932449 484.946075,197.244186 483.409698,197.038986
	C477.095245,196.195602 470.649414,195.989899 464.471832,194.583649
	C460.028198,193.572098 458.104614,195.653076 457.199219,198.884644
	C456.148987,202.633316 458.149139,205.328568 462.063629,205.967377
	C468.966431,207.093887 475.882660,208.314987 482.842163,208.811996
	C485.011017,208.966888 488.190613,207.463654 489.326447,205.700790
	C490.262848,204.247437 488.864288,201.289642 487.919464,198.398605
M221.330902,194.000000
	C215.356888,194.001175 209.382675,193.974548 203.408920,194.014267
	C199.971313,194.037109 198.992645,196.126297 198.960770,199.228790
	C198.930618,202.160950 199.410187,204.736618 202.870087,204.945770
	C210.757553,205.422638 218.657639,205.847763 226.556137,205.923523
	C230.890106,205.965103 233.088211,201.907257 231.436234,197.885269
	C229.643600,193.520935 225.876999,194.002304 221.330902,194.000000
M410.409271,12.904259
	C405.552399,14.570118 403.350220,17.687691 405.244720,21.217546
	C407.006744,24.500536 409.794464,25.635706 413.950104,24.204721
	C419.577148,22.267082 425.553131,21.343277 431.378448,19.980625
	C435.189209,19.089224 437.355347,17.142021 437.077545,12.763867
	C436.809875,8.546396 433.931427,7.652888 431.003265,8.126101
	C424.299164,9.209535 417.702942,10.960603 410.409271,12.904259
M1004.572571,136.011292
	C1006.479370,135.631165 1008.402771,135.318848 1010.289551,134.856995
	C1014.406616,133.849243 1014.916504,130.339340 1013.733032,127.538116
	C1012.889709,125.541901 1009.539246,122.956955 1007.790039,123.276451
	C1000.186462,124.665230 992.639038,126.683960 985.359375,129.281448
	C983.675964,129.882141 982.353455,133.638535 982.273926,135.990402
	C982.193420,138.369141 984.028687,140.702011 987.247803,139.980194
	C992.758972,138.744476 998.243164,137.388229 1004.572571,136.011292
M370.195557,59.068645
	C367.809265,60.420181 363.734558,61.392090 363.330475,63.189323
	C361.628845,70.757278 360.634857,78.549660 360.196411,86.305954
	C360.006195,89.671349 362.330261,92.540062 366.620087,91.990631
	C370.291656,91.520378 371.804413,89.403809 372.069305,85.700218
	C372.521759,79.374557 373.152985,73.036385 374.215149,66.789505
	C374.812775,63.274460 374.326904,60.844990 370.195557,59.068645
M374.106232,131.634109
	C376.886139,134.307388 380.167664,133.388245 381.917816,131.162811
	C383.255127,129.462341 383.519409,125.941650 382.756897,123.755180
	C380.733612,117.953392 377.354980,112.602531 375.550110,106.753082
	C374.067383,101.947647 371.031372,101.362015 367.303558,102.135139
	C362.995270,103.028648 363.222198,107.131874 364.210999,109.787125
	C366.910553,117.036507 370.403320,123.990524 374.106232,131.634109
M1031.760132,131.999939
	C1038.190796,131.664169 1044.624023,131.366043 1051.049927,130.956406
	C1052.150391,130.886246 1053.638794,130.675446 1054.222290,129.947678
	C1055.699097,128.106277 1057.812012,125.862068 1057.678833,123.915443
	C1057.560425,122.185837 1054.788574,119.271034 1053.151611,119.245880
	C1045.572876,119.129433 1037.957886,119.602127 1030.405151,120.355827
	C1026.901978,120.705406 1024.632690,122.741615 1024.892578,127.058098
	C1025.146851,131.282120 1027.805664,131.658707 1031.760132,131.999939
M1124.404541,130.000000
	C1128.826538,130.333221 1133.254272,130.604538 1137.668823,131.017700
	C1141.804810,131.404770 1143.468384,128.649521 1143.855591,125.459946
	C1144.286011,121.913521 1142.011108,119.387444 1138.468262,119.097466
	C1131.240112,118.505875 1123.979858,118.211601 1116.727295,118.055023
	C1112.970703,117.973930 1111.084595,120.242218 1110.999390,123.990761
	C1110.914062,127.737167 1112.617310,129.872971 1116.468384,129.984619
	C1118.794434,130.052078 1121.123901,129.998947 1124.404541,130.000000
M950.483704,278.999969
	C955.637512,278.334381 960.793030,277.681915 965.944458,276.998749
	C969.600891,276.513794 971.147095,273.736084 970.749084,270.754395
	C970.311768,267.478333 967.625305,265.339874 964.094971,265.513733
	C957.080566,265.859192 950.079956,266.486786 943.074341,267.007263
	C939.442871,267.277069 938.002380,269.401428 937.982666,272.876038
	C937.962708,276.401367 939.713501,278.468262 943.075806,278.940460
	C945.189270,279.237213 947.377930,278.998474 950.483704,278.999969
M1245.915039,135.944397
	C1242.439575,134.513321 1240.050781,135.805573 1238.510132,138.992859
	C1236.875122,142.375565 1238.437866,145.577988 1241.213745,146.434937
	C1248.774780,148.769089 1256.601318,150.256195 1264.344971,151.978806
	C1268.135498,152.821991 1270.580811,150.068787 1270.579590,147.315338
	C1270.578613,145.192596 1268.036743,141.938629 1265.905762,141.163223
	C1259.708374,138.908157 1253.149780,137.645981 1245.915039,135.944397
M706.000061,146.554016
	C706.554810,151.686584 709.584290,153.742935 714.594055,151.666885
	C721.031067,148.999359 727.335022,145.958755 733.497009,142.701859
	C736.501526,141.113815 737.707581,138.032852 735.887573,134.875580
	C734.153564,131.867630 731.684143,130.003326 727.775635,132.000122
	C721.848389,135.028275 715.677795,137.592514 709.837585,140.771027
	C708.157471,141.685425 707.258057,144.034424 706.000061,146.554016
M897.483887,188.039200
	C898.484558,186.363266 899.960205,184.796448 900.376038,182.986176
	C901.019836,180.183655 902.669983,176.926437 898.608826,174.882706
	C894.749939,172.940735 891.986145,174.056381 890.004517,177.529999
	C888.065491,180.928909 886.084534,184.347961 884.616455,187.959183
	C883.101379,191.685776 881.848816,195.592377 881.112000,199.537964
	C880.561890,202.484436 882.469849,204.545959 885.505920,204.935623
	C888.428162,205.310699 890.956543,205.019043 892.091064,201.377228
	C893.438782,197.051041 895.381592,192.910248 897.483887,188.039200
M1010.001038,183.323868
	C1010.329407,184.735931 1010.853821,186.135056 1010.948242,187.562576
	C1011.198792,191.353363 1013.961853,193.012405 1016.869080,192.748978
	C1020.026184,192.462936 1022.708435,190.314468 1021.988586,186.292953
	C1020.706665,179.131348 1019.570068,171.933228 1017.954102,164.845795
	C1016.975281,160.552917 1013.476685,158.602341 1009.943542,160.150482
	C1006.452271,161.680267 1005.968140,164.653824 1006.917358,168.242325
	C1008.155884,172.924576 1008.991211,177.713470 1010.001038,183.323868
M1174.771118,134.988190
	C1176.763550,134.991959 1178.757690,134.943741 1180.747925,135.011520
	C1183.848999,135.117065 1185.909546,134.069656 1185.998657,130.609741
	C1186.077881,127.535095 1186.238159,124.515083 1181.976929,123.976112
	C1174.715454,123.057701 1167.481079,121.923088 1160.216553,121.031815
	C1156.001221,120.514633 1153.383423,123.061516 1153.293945,126.806587
	C1153.206543,130.470444 1155.510742,132.866974 1159.820801,133.089783
	C1164.518433,133.332642 1169.179810,134.281433 1174.771118,134.988190
M493.686493,71.998993
	C498.450958,72.528061 500.839722,70.309715 499.926270,65.664909
	C498.458527,58.201481 496.753967,50.760212 494.579224,43.479919
	C494.120453,41.944008 491.275116,40.332237 489.401947,40.162613
	C484.691132,39.736019 482.611877,44.298237 484.301147,49.842487
	C485.760529,54.632320 486.548737,59.632774 488.113251,64.382141
	C489.036896,67.186081 488.126465,71.443077 493.686493,71.998993
M286.772614,194.075043
	C286.500610,196.951248 285.366974,200.152283 286.282501,202.580811
	C286.824341,204.017975 290.597900,204.852341 292.929016,204.875534
	C298.334290,204.929337 303.751617,204.392670 309.152191,203.950623
	C310.909637,203.806778 313.031555,203.708191 314.268097,202.703964
	C315.878204,201.396408 317.891510,199.065659 317.685150,197.433975
	C317.439087,195.488037 315.010315,192.264893 313.555420,192.280197
	C304.900909,192.371307 296.254547,193.238770 286.772614,194.075043
M501.674316,208.100418
	C502.077484,208.363266 502.487946,208.865677 502.882782,208.853714
	C511.430206,208.595016 520.002808,208.582184 528.508911,207.827576
	C532.009338,207.517029 533.627808,204.371170 532.946350,200.795868
	C532.233521,197.056244 529.311279,195.875732 525.964172,196.121567
	C519.635132,196.586380 513.338806,197.500015 507.009521,197.959320
	C500.281403,198.447586 498.617798,200.961273 501.674316,208.100418
M561.584839,191.001358
	C556.662048,191.991699 551.747009,193.022949 546.814148,193.960220
	C542.355713,194.807358 542.783386,198.219589 543.074707,201.309097
	C543.367920,204.417419 545.694763,205.408188 548.456848,204.963898
	C555.820557,203.779388 563.133240,202.262054 570.511353,201.187042
	C575.242554,200.497665 575.281372,197.317886 574.959778,193.883728
	C574.598206,190.021286 571.707703,189.768265 568.738647,190.028900
	C566.637146,190.213364 564.559143,190.665527 561.584839,191.001358
M333.576263,189.979797
	C329.288971,189.544189 327.117126,192.307083 327.252594,195.781540
	C327.376099,198.949463 329.601746,201.459427 333.656647,201.028503
	C340.998108,200.248337 348.373688,199.774338 355.703461,198.905930
	C359.294342,198.480499 361.106323,195.816010 359.827698,192.553833
	C358.974030,190.375900 356.434357,187.219208 354.764252,187.288147
	C347.962250,187.568909 341.204590,188.924606 333.576263,189.979797
M600.732910,194.083679
	C604.968323,192.995575 609.251221,192.061310 613.424438,190.771988
	C616.924500,189.690613 617.375488,186.671326 616.936829,183.588776
	C616.495911,180.490509 614.145264,179.471283 611.452087,180.055954
	C603.548157,181.771820 595.630676,183.502533 587.861023,185.725281
	C584.268860,186.752914 584.181458,190.688263 585.383606,193.134796
	C586.267944,194.934570 589.392334,196.468872 591.593323,196.575424
	C594.355896,196.709122 597.195007,195.263321 600.732910,194.083679
M895.993164,242.166870
	C895.657898,240.426758 895.440796,238.653687 894.966064,236.952515
	C893.359741,231.196854 891.224304,225.546997 890.151245,219.698868
	C889.420532,215.716736 887.503723,214.920471 884.078369,214.956360
	C880.538147,214.993423 879.096619,216.529495 878.947144,220.068558
	C878.611572,228.012619 881.037415,235.192474 884.580994,242.083939
	C887.844421,248.430634 891.350769,248.659775 895.993164,242.166870
M888.520264,94.000000
	C890.685364,93.997688 893.047913,94.531517 894.955017,93.828926
	C896.574402,93.232285 898.765625,91.192780 898.745667,89.820145
	C898.713013,87.573944 897.171082,83.461388 896.125610,83.416710
	C887.712036,83.057159 879.264832,83.435219 870.829651,83.653046
	C866.726379,83.759010 866.034485,87.254837 866.263550,89.897087
	C866.513916,92.783745 868.375305,95.398468 872.289001,95.033897
	C877.371582,94.560440 882.477173,94.333214 888.520264,94.000000
M1073.038818,129.954605
	C1080.293457,129.636261 1087.545776,129.220901 1094.803833,129.040070
	C1098.489136,128.948273 1100.961426,127.605881 1100.938843,123.707909
	C1100.915283,119.636482 1098.420410,117.948685 1094.474243,117.984314
	C1087.979614,118.042953 1081.464233,117.708694 1074.999634,118.152321
	C1072.618530,118.315704 1069.103882,119.656441 1068.310059,121.440643
	C1066.816895,124.796486 1068.154785,128.249802 1073.038818,129.954605
M1341.733521,167.285797
	C1336.746948,165.190704 1331.855103,162.809097 1326.735229,161.117142
	C1324.033081,160.224136 1321.720703,161.469101 1320.917847,164.795425
	C1320.115967,168.118561 1321.045044,170.531082 1324.004517,171.945953
	C1326.611450,173.192200 1329.390747,174.089706 1332.123169,175.058884
	C1338.693115,177.389236 1343.229126,176.128922 1341.733521,167.285797
M180.198151,192.000046
	C177.214645,192.001526 174.065277,191.424393 171.307953,192.214890
	C169.569061,192.713409 167.761002,195.048233 167.159500,196.934250
	C166.323013,199.557129 167.086761,202.458099 170.519485,202.915512
	C174.887054,203.497437 179.348953,204.125977 183.692963,203.775955
	C185.552292,203.626129 188.128784,201.342606 188.701691,199.505402
	C189.227142,197.820450 187.989182,194.964355 186.602966,193.500351
	C185.487000,192.321762 182.989304,192.451447 180.198151,192.000046
z"/>
<path fill="#17B59D" opacity="1.000000" stroke="none"
	d="
M41.752998,206.000000
	C35.065899,204.968124 28.816420,203.936234 22.246626,202.851456
	C20.979946,206.177612 19.609606,210.141739 17.974827,213.993637
	C14.417711,222.375046 11.797245,223.468506 2.766507,220.283768
	C4.898557,214.366074 7.061584,208.454224 9.136575,202.511658
	C9.477764,201.534531 9.756715,199.588165 9.517830,199.495270
	C4.236153,197.441238 7.661016,196.282639 10.309295,195.222137
	C7.722420,187.880569 5.250306,180.864685 2.767009,173.817078
	C12.736328,171.398178 15.303191,172.884399 18.937008,182.849747
	C22.324274,192.138977 22.312763,192.086761 31.626465,190.032028
	C36.179840,189.027481 40.785263,188.258881 45.759533,187.308502
	C44.464420,186.575912 43.305119,185.920135 41.072544,184.657272
	C45.586357,183.278030 49.277950,182.003998 53.047577,181.032852
	C58.527889,179.621017 59.767902,184.010666 61.592888,187.808990
	C57.899239,167.051727 51.571266,147.426147 41.986412,128.863235
	C46.404919,127.740921 52.589733,130.068329 54.972870,134.067703
	C62.063644,145.967407 68.990250,157.964920 75.986298,169.921097
	C78.619308,174.420883 81.243645,178.925995 83.914284,183.403427
	C86.559235,187.837753 90.932693,188.860306 95.596794,188.967590
	C101.425552,189.101639 107.274811,189.263077 113.087555,188.929947
	C119.592117,188.557175 125.341568,190.565933 130.927887,193.463455
	C134.882080,195.514450 135.345123,199.083206 131.434631,200.679489
	C125.783905,202.986176 119.814842,204.970810 113.802711,205.807693
	C107.591347,206.672318 101.165092,206.067780 94.834648,205.978333
	C89.861427,205.908066 85.989471,207.470230 83.384689,212.039444
	C75.316589,226.192276 67.089943,240.254700 58.934399,254.357742
	C54.520096,261.991180 50.394806,267.236176 42.281666,265.741730
	C51.362862,247.093658 58.134171,227.743439 61.380531,207.104034
	C59.813896,211.138672 58.342808,215.144241 53.018936,213.860947
	C49.308632,212.966583 45.772793,211.348419 41.782330,209.918625
	C43.764114,208.654755 45.194866,207.742294 47.926819,206.000000
	C45.002419,206.000000 43.596519,206.000000 41.752998,206.000000
z"/>
<path fill="#17B59D" opacity="1.000000" stroke="none"
	d="
M1333.952881,97.041534
	C1331.003662,88.358421 1328.377197,80.257019 1329.746826,71.026169
	C1331.657349,58.150063 1339.842896,51.942944 1351.144897,49.179119
	C1364.365967,45.946026 1377.689453,46.371906 1390.698608,51.007042
	C1399.283325,54.065720 1405.480713,63.326431 1406.102051,72.389664
	C1407.191650,88.283638 1400.945068,101.958435 1393.316162,114.949402
	C1385.927612,127.531151 1377.231201,139.344864 1368.523438,152.372482
	C1354.190796,134.744354 1341.887939,117.504112 1333.952881,97.041534
M1358.520752,99.104568
	C1362.071533,100.069443 1365.604370,101.755005 1369.177124,101.844772
	C1376.003418,102.016327 1382.248169,96.723343 1384.632690,89.810776
	C1386.964355,83.051437 1385.068481,75.866417 1379.731934,71.237762
	C1374.441528,66.649109 1365.816040,65.373497 1360.040649,68.482697
	C1350.088013,73.840752 1344.740234,88.722206 1358.520752,99.104568
z"/>
<path fill="#17B59D" opacity="1.000000" stroke="none"
	d="
M1365.439941,161.002518
	C1375.351318,159.495163 1381.119019,166.458435 1380.076050,174.593735
	C1379.533081,178.829468 1376.098877,183.867310 1372.173340,184.890472
	C1367.008301,186.236725 1360.373901,184.267426 1357.940063,180.665695
	C1352.608765,172.776245 1355.765625,163.999573 1365.439941,161.002518
z"/>
<path fill="#17B59D" opacity="1.000000" stroke="none"
	d="
M376.742462,37.752510
	C381.160675,33.339588 385.178955,29.029375 389.532532,25.089710
	C392.408936,22.486824 395.671143,23.803482 396.880310,26.738464
	C397.816162,29.010025 397.795746,32.892559 396.414062,34.671379
	C392.431824,39.798267 387.324005,44.034039 383.095825,48.992870
	C380.507355,52.028587 377.777802,53.031639 374.702362,50.798626
	C371.819031,48.705074 370.702881,45.632168 373.214996,42.274864
	C374.287720,40.841206 375.393982,39.432636 376.742462,37.752510
z"/>
<path fill="#17B59D" opacity="1.000000" stroke="none"
	d="
M910.667236,154.720642
	C914.934021,151.683640 918.783569,148.666595 922.906616,146.086441
	C926.221924,144.011688 929.675171,144.449570 931.890625,147.866592
	C934.184204,151.404266 932.820618,154.058594 929.363586,156.365524
	C923.967773,159.966217 919.105042,164.420807 913.517639,167.650772
	C911.424316,168.860855 907.144775,168.652069 905.345642,167.222717
	C904.025818,166.174133 904.471497,161.842636 905.356506,159.422668
	C906.036682,157.562698 908.627197,156.401321 910.667236,154.720642
z"/>
<path fill="#17B59D" opacity="1.000000" stroke="none"
	d="
M954.330505,98.033264
	C958.181274,99.344818 961.826721,100.326294 965.028809,102.105728
	C969.132874,104.386497 972.837463,107.375290 976.794373,109.935020
	C980.075745,112.057739 981.155518,114.993469 979.119141,118.193436
	C976.974060,121.564201 973.801758,122.088669 970.210876,119.783875
	C965.161438,116.543015 960.048767,113.385643 954.829102,110.429062
	C948.464478,106.823883 948.095398,102.784554 954.330505,98.033264
z"/>
<path fill="#17B59D" opacity="1.000000" stroke="none"
	d="
M666.049438,164.840622
	C666.735535,160.793411 668.941467,158.907242 672.514038,157.667587
	C678.011597,155.759995 683.245117,153.099442 688.619690,150.826859
	C693.088379,148.937317 695.715210,149.884781 697.398743,153.859131
	C698.838989,157.259232 697.254883,160.317871 693.322388,161.904907
	C687.471985,164.265961 681.599792,166.581467 675.819641,169.105774
	C671.132080,171.152939 667.907410,170.083450 666.049438,164.840622
z"/>
<path fill="#17B59D" opacity="1.000000" stroke="none"
	d="
M458.984589,147.434082
	C455.059204,143.859985 455.665680,140.819656 458.912994,137.536926
	C463.561859,132.837433 467.803192,127.726303 472.560333,123.145935
	C475.060089,120.739006 478.399841,120.056320 481.311737,122.866920
	C484.474152,125.919304 483.524292,129.414658 481.157837,132.151215
	C477.464050,136.422653 473.038483,140.058929 469.316101,144.308670
	C466.477844,147.549011 463.367065,148.786438 458.984589,147.434082
z"/>
<path fill="#17B59D" opacity="1.000000" stroke="none"
	d="
M934.723389,89.034134
	C936.205017,89.427223 937.438965,89.568405 938.320801,90.200661
	C940.997375,92.119614 943.042297,94.475357 941.419373,98.081696
	C939.945984,101.355743 937.600586,102.565300 933.900269,101.506386
	C927.981812,99.812744 921.994629,98.315697 915.971252,97.045296
	C911.039612,96.005127 908.285156,93.266418 909.026794,89.457413
	C909.672607,86.140152 913.884583,84.104530 918.244568,85.116119
	C923.613159,86.361702 928.958984,87.705444 934.723389,89.034134
z"/>
<path fill="#17B59D" opacity="1.000000" stroke="none"
	d="
M913.027344,270.006470
	C908.574707,267.264832 904.230164,264.904846 900.550964,261.765259
	C899.179077,260.594543 898.597900,257.416534 899.065857,255.497559
	C899.472229,253.831116 901.665039,252.084579 903.452209,251.443954
	C904.735413,250.983963 906.788513,252.038589 908.260010,252.849716
	C913.773682,255.888916 919.158691,259.160675 924.654358,262.233673
	C927.562256,263.859680 929.562073,268.613129 927.703064,271.345978
	C925.787598,274.161835 922.828064,274.972107 919.528625,273.139679
	C917.534119,272.031982 915.445862,271.093170 913.027344,270.006470
z"/>
<path fill="#17B59D" opacity="1.000000" stroke="none"
	d="
M637.566956,183.747345
	C633.934021,184.588013 630.633850,186.530975 627.606995,183.160370
	C624.818420,180.055145 625.132751,175.684525 628.951538,174.114288
	C636.151855,171.153671 643.463623,168.321030 650.968933,166.347031
	C652.828003,165.858063 656.755554,168.332474 657.698792,170.380981
	C659.211975,173.667404 657.277161,176.693542 653.517944,178.004120
	C648.310181,179.819702 643.127258,181.706360 637.566956,183.747345
z"/>
<path fill="#17B59D" opacity="1.000000" stroke="none"
	d="
M829.352295,102.700035
	C825.526184,101.937187 823.459839,99.598083 824.214355,96.422615
	C824.705383,94.356483 826.909058,91.773872 828.888428,91.152679
	C835.660461,89.027405 842.633423,87.468803 849.608704,86.094635
	C853.322571,85.362984 856.227966,87.393608 856.837646,91.089256
	C857.458130,94.850288 855.186401,97.158249 851.456116,97.987747
	C844.198059,99.601730 836.950073,101.260887 829.352295,102.700035
z"/>
<path fill="#17B59D" opacity="1.000000" stroke="none"
	d="
M767.342896,126.272858
	C762.301086,128.661011 757.541321,130.761215 752.874634,133.051132
	C749.229797,134.839600 746.690430,133.917587 744.822632,130.425690
	C742.764282,126.577423 744.787720,123.781242 747.750488,122.220665
	C753.477966,119.203934 759.537109,116.812881 765.480042,114.210976
	C769.763550,112.335594 773.941467,113.133102 774.933411,115.934715
	C776.414490,120.117912 774.499329,123.347610 769.434509,125.242645
	C768.826965,125.469948 768.254028,125.789719 767.342896,126.272858
z"/>
<path fill="#17B59D" opacity="1.000000" stroke="none"
	d="
M244.160889,205.041397
	C240.135223,200.027374 241.995102,194.449875 247.712250,194.116089
	C254.844467,193.699692 262.023041,193.876999 269.174103,194.072083
	C272.535797,194.163773 275.153534,196.470764 274.740479,199.654190
	C274.452179,201.875809 271.929779,205.495712 270.276367,205.568665
	C261.734589,205.945602 253.151230,205.380280 244.160889,205.041397
z"/>
<path fill="#17B59D" opacity="1.000000" stroke="none"
	d="
M392.249084,155.748444
	C389.972931,153.133759 387.969879,150.750854 385.917084,148.411575
	C383.172699,145.284225 384.049988,142.138885 386.756714,139.984116
	C389.716797,137.627640 393.032196,138.778473 395.619629,141.238297
	C399.635498,145.056076 403.702606,148.855392 407.347198,153.013794
	C409.242981,155.176880 411.588898,158.181931 411.419952,160.648315
	C411.113770,165.118683 404.936554,166.792984 401.356201,163.824814
	C398.325043,161.311890 395.446289,158.615082 392.249084,155.748444
z"/>
<path fill="#17B59D" opacity="1.000000" stroke="none"
	d="
M944.369019,136.282806
	C951.237244,134.169830 957.732300,132.200592 964.265991,130.369217
	C968.807861,129.096191 972.415161,130.927444 972.869934,135.014236
	C973.319458,139.053879 971.019043,141.088440 967.060730,142.081635
	C960.967957,143.610367 955.090088,146.069519 948.955139,147.319382
	C946.593384,147.800568 942.135193,146.699921 941.531982,145.173752
	C940.486145,142.528076 939.222839,138.192398 944.369019,136.282806
z"/>
<path fill="#17B59D" opacity="1.000000" stroke="none"
	d="
M1009.990173,234.988190
	C1003.838318,232.619064 1003.250488,231.101486 1004.972900,225.357040
	C1006.828125,219.169540 1008.024231,212.765030 1010.203247,206.705231
	C1010.908630,204.743500 1014.495789,201.923157 1015.568298,202.369629
	C1018.052307,203.403778 1021.783142,206.500549 1021.515991,208.217621
	C1020.305115,215.999954 1018.127808,223.672775 1015.705139,231.193924
	C1015.169373,232.857208 1012.223206,233.744064 1009.990173,234.988190
z"/>
<path fill="#17B59D" opacity="1.000000" stroke="none"
	d="
M436.771729,151.738525
	C438.997864,150.649536 440.874207,149.438446 442.896179,149.101593
	C445.656006,148.641846 449.048645,148.442261 449.828644,152.066177
	C450.512756,155.244720 450.604950,158.569397 446.432922,160.301788
	C440.569000,162.736725 435.018036,165.943527 429.108795,168.243591
	C426.145813,169.396881 422.357880,170.844772 419.979767,166.766266
	C417.735291,162.916916 419.220673,159.603897 424.017456,157.479080
	C428.167694,155.640671 432.329926,153.829376 436.771729,151.738525
z"/>
<path fill="#17B59D" opacity="1.000000" stroke="none"
	d="
M1301.160645,163.964432
	C1295.069580,161.955795 1289.452637,159.763626 1283.685303,158.090775
	C1279.335938,156.829208 1279.762939,153.629318 1280.093384,150.565598
	C1280.429688,147.446045 1282.950928,146.362106 1285.587158,147.075974
	C1293.565308,149.236328 1301.535400,151.505692 1309.294067,154.323532
	C1310.695923,154.832642 1312.215332,158.567352 1311.658081,160.055878
	C1310.900024,162.081024 1308.390991,163.770859 1306.249512,164.828949
	C1305.105103,165.394440 1303.156128,164.331863 1301.160645,163.964432
z"/>
<path fill="#17B59D" opacity="1.000000" stroke="none"
	d="
M803.364380,111.280304
	C799.703918,112.801537 796.399719,114.146652 793.073547,115.434952
	C788.465576,117.219780 785.156250,116.156181 783.671936,112.192619
	C782.045410,107.849556 785.099121,105.733421 788.289001,104.409683
	C794.421021,101.864960 800.775635,99.862152 806.970947,97.461830
	C810.716858,96.010498 813.406799,97.615593 814.688354,100.673019
	C816.127136,104.105560 814.632507,107.284431 811.160339,108.863388
	C808.824402,109.925606 806.203979,110.362289 803.364380,111.280304
z"/>
<path fill="#17B59D" opacity="1.000000" stroke="none"
	d="
M471.736298,16.228296
	C475.084076,18.906605 478.207214,21.275822 481.224548,23.772863
	C484.319885,26.334494 483.732971,29.976162 481.672760,32.085979
	C480.294769,33.497108 476.206512,33.869366 474.302704,32.864914
	C468.002930,29.541164 461.866211,25.734045 456.283630,21.330584
	C454.587311,19.992516 453.522614,14.836390 454.586029,13.708815
	C456.272186,11.920923 460.143799,11.156525 462.812683,11.606936
	C465.855927,12.120524 468.594330,14.440447 471.736298,16.228296
z"/>
<path fill="#17B59D" opacity="1.000000" stroke="none"
	d="
M986.371948,267.835693
	C982.566223,268.442780 979.156494,267.825653 978.751648,264.021576
	C978.514343,261.791626 980.023071,258.872040 981.634705,257.047089
	C985.838135,252.287262 990.241943,247.597610 995.182129,243.651642
	C996.965027,242.227585 1001.790100,241.820969 1002.928040,243.060516
	C1004.483032,244.754349 1005.187256,249.644058 1003.907227,251.103012
	C998.674438,257.067383 992.548157,262.247864 986.371948,267.835693
z"/>
<path fill="#17B59D" opacity="1.000000" stroke="none"
	d="
M1199.203857,138.055145
	C1198.009033,135.341614 1196.097656,132.433929 1196.689575,130.185165
	C1197.497314,127.116623 1201.021851,126.434418 1204.195435,127.032562
	C1210.902710,128.296768 1217.614380,129.559540 1224.271240,131.058670
	C1227.496338,131.784943 1229.377686,133.954681 1228.969360,137.512070
	C1228.561035,141.069687 1225.784790,143.091370 1222.954224,142.705246
	C1215.109497,141.635193 1207.378662,139.729874 1199.203857,138.055145
z"/>
<path fill="#17B59D" opacity="1.000000" stroke="none"
	d="
M370.036194,190.736343
	C369.863678,186.594986 371.768982,184.750000 375.352264,183.943634
	C381.816711,182.488937 388.193115,180.643311 394.656464,179.183136
	C398.500946,178.314621 401.703888,179.726959 402.747009,183.650330
	C403.763336,187.472855 401.506226,190.030563 397.910675,190.898117
	C391.457245,192.455231 384.853271,193.414093 378.443390,195.116791
	C374.179016,196.249527 371.640869,195.023026 370.036194,190.736343
z"/>
<path fill="#17B59D" opacity="1.000000" stroke="none"
	d="
M419.568878,191.232315
	C415.454163,188.952240 416.484436,185.500900 417.817780,182.986450
	C419.259430,180.267685 422.054382,179.395752 425.400604,181.031372
	C431.235870,183.883621 437.233856,186.411469 443.216003,188.952011
	C447.465851,190.756866 449.556580,194.042526 447.735718,197.348724
	C445.989777,200.518906 443.170746,201.735809 439.453125,200.028351
	C432.987640,197.058807 426.434357,194.280334 419.568878,191.232315
z"/>
<path fill="#17B59D" opacity="1.000000" stroke="none"
	d="
M488.488037,114.202133
	C482.577972,113.377739 481.064270,110.989914 482.574005,105.846191
	C484.440857,99.485641 485.803497,92.936623 488.227417,86.802292
	C489.059967,84.695267 492.300018,82.573250 494.671967,82.269844
	C498.129303,81.827621 500.229492,85.435081 499.673584,88.150536
	C498.088409,95.894440 495.755035,103.505882 493.290039,111.029877
	C492.847748,112.379868 490.373627,113.064186 488.488037,114.202133
z"/>
<path fill="#17B59D" opacity="1.000000" stroke="none"
	d="
M488.209961,198.698578
	C488.864288,201.289642 490.262848,204.247437 489.326447,205.700790
	C488.190613,207.463654 485.011017,208.966888 482.842163,208.811996
	C475.882660,208.314987 468.966431,207.093887 462.063629,205.967377
	C458.149139,205.328568 456.148987,202.633316 457.199219,198.884644
	C458.104614,195.653076 460.028198,193.572098 464.471832,194.583649
	C470.649414,195.989899 477.095245,196.195602 483.409698,197.038986
	C484.946075,197.244186 486.417938,197.932449 488.209961,198.698578
z"/>
<path fill="#17B59D" opacity="1.000000" stroke="none"
	d="
M221.804413,194.000000
	C225.876999,194.002304 229.643600,193.520935 231.436234,197.885269
	C233.088211,201.907257 230.890106,205.965103 226.556137,205.923523
	C218.657639,205.847763 210.757553,205.422638 202.870087,204.945770
	C199.410187,204.736618 198.930618,202.160950 198.960770,199.228790
	C198.992645,196.126297 199.971313,194.037109 203.408920,194.014267
	C209.382675,193.974548 215.356888,194.001175 221.804413,194.000000
z"/>
<path fill="#17B59D" opacity="1.000000" stroke="none"
	d="
M410.736084,12.672411
	C417.702942,10.960603 424.299164,9.209535 431.003265,8.126101
	C433.931427,7.652888 436.809875,8.546396 437.077545,12.763867
	C437.355347,17.142021 435.189209,19.089224 431.378448,19.980625
	C425.553131,21.343277 419.577148,22.267082 413.950104,24.204721
	C409.794464,25.635706 407.006744,24.500536 405.244720,21.217546
	C403.350220,17.687691 405.552399,14.570118 410.736084,12.672411
z"/>
<path fill="#17B59D" opacity="1.000000" stroke="none"
	d="
M1004.155640,136.046967
	C998.243164,137.388229 992.758972,138.744476 987.247803,139.980194
	C984.028687,140.702011 982.193420,138.369141 982.273926,135.990402
	C982.353455,133.638535 983.675964,129.882141 985.359375,129.281448
	C992.639038,126.683960 1000.186462,124.665230 1007.790039,123.276451
	C1009.539246,122.956955 1012.889709,125.541901 1013.733032,127.538116
	C1014.916504,130.339340 1014.406616,133.849243 1010.289551,134.856995
	C1008.402771,135.318848 1006.479370,135.631165 1004.155640,136.046967
z"/>
<path fill="#17B59D" opacity="1.000000" stroke="none"
	d="
M370.552856,59.242271
	C374.326904,60.844990 374.812775,63.274460 374.215149,66.789505
	C373.152985,73.036385 372.521759,79.374557 372.069305,85.700218
	C371.804413,89.403809 370.291656,91.520378 366.620087,91.990631
	C362.330261,92.540062 360.006195,89.671349 360.196411,86.305954
	C360.634857,78.549660 361.628845,70.757278 363.330475,63.189323
	C363.734558,61.392090 367.809265,60.420181 370.552856,59.242271
z"/>
<path fill="#17B59D" opacity="1.000000" stroke="none"
	d="
M373.844055,131.347824
	C370.403320,123.990524 366.910553,117.036507 364.210999,109.787125
	C363.222198,107.131874 362.995270,103.028648 367.303558,102.135139
	C371.031372,101.362015 374.067383,101.947647 375.550110,106.753082
	C377.354980,112.602531 380.733612,117.953392 382.756897,123.755180
	C383.519409,125.941650 383.255127,129.462341 381.917816,131.162811
	C380.167664,133.388245 376.886139,134.307388 373.844055,131.347824
z"/>
<path fill="#17B59D" opacity="1.000000" stroke="none"
	d="
M1031.312256,131.999603
	C1027.805664,131.658707 1025.146851,131.282120 1024.892578,127.058098
	C1024.632690,122.741615 1026.901978,120.705406 1030.405151,120.355827
	C1037.957886,119.602127 1045.572876,119.129433 1053.151611,119.245880
	C1054.788574,119.271034 1057.560425,122.185837 1057.678833,123.915443
	C1057.812012,125.862068 1055.699097,128.106277 1054.222290,129.947678
	C1053.638794,130.675446 1052.150391,130.886246 1051.049927,130.956406
	C1044.624023,131.366043 1038.190796,131.664169 1031.312256,131.999603
z"/>
<path fill="#17B59D" opacity="1.000000" stroke="none"
	d="
M1123.928223,130.000000
	C1121.123901,129.998947 1118.794434,130.052078 1116.468384,129.984619
	C1112.617310,129.872971 1110.914062,127.737167 1110.999390,123.990761
	C1111.084595,120.242218 1112.970703,117.973930 1116.727295,118.055023
	C1123.979858,118.211601 1131.240112,118.505875 1138.468262,119.097466
	C1142.011108,119.387444 1144.286011,121.913521 1143.855591,125.459946
	C1143.468384,128.649521 1141.804810,131.404770 1137.668823,131.017700
	C1133.254272,130.604538 1128.826538,130.333221 1123.928223,130.000000
z"/>
<path fill="#17B59D" opacity="1.000000" stroke="none"
	d="
M950.008301,279.000000
	C947.377930,278.998474 945.189270,279.237213 943.075806,278.940460
	C939.713501,278.468262 937.962708,276.401367 937.982666,272.876038
	C938.002380,269.401428 939.442871,267.277069 943.074341,267.007263
	C950.079956,266.486786 957.080566,265.859192 964.094971,265.513733
	C967.625305,265.339874 970.311768,267.478333 970.749084,270.754395
	C971.147095,273.736084 969.600891,276.513794 965.944458,276.998749
	C960.793030,277.681915 955.637512,278.334381 950.008301,279.000000
z"/>
<path fill="#17B59D" opacity="1.000000" stroke="none"
	d="
M1246.323975,135.969391
	C1253.149780,137.645981 1259.708374,138.908157 1265.905762,141.163223
	C1268.036743,141.938629 1270.578613,145.192596 1270.579590,147.315338
	C1270.580811,150.068787 1268.135498,152.821991 1264.344971,151.978806
	C1256.601318,150.256195 1248.774780,148.769089 1241.213745,146.434937
	C1238.437866,145.577988 1236.875122,142.375565 1238.510132,138.992859
	C1240.050781,135.805573 1242.439575,134.513321 1246.323975,135.969391
z"/>
<path fill="#17B59D" opacity="1.000000" stroke="none"
	d="
M706.000366,146.139847
	C707.258057,144.034424 708.157471,141.685425 709.837585,140.771027
	C715.677795,137.592514 721.848389,135.028275 727.775635,132.000122
	C731.684143,130.003326 734.153564,131.867630 735.887573,134.875580
	C737.707581,138.032852 736.501526,141.113815 733.497009,142.701859
	C727.335022,145.958755 721.031067,148.999359 714.594055,151.666885
	C709.584290,153.742935 706.554810,151.686584 706.000366,146.139847
z"/>
<path fill="#17B59D" opacity="1.000000" stroke="none"
	d="
M897.275208,188.364166
	C895.381592,192.910248 893.438782,197.051041 892.091064,201.377228
	C890.956543,205.019043 888.428162,205.310699 885.505920,204.935623
	C882.469849,204.545959 880.561890,202.484436 881.112000,199.537964
	C881.848816,195.592377 883.101379,191.685776 884.616455,187.959183
	C886.084534,184.347961 888.065491,180.928909 890.004517,177.529999
	C891.986145,174.056381 894.749939,172.940735 898.608826,174.882706
	C902.669983,176.926437 901.019836,180.183655 900.376038,182.986176
	C899.960205,184.796448 898.484558,186.363266 897.275208,188.364166
z"/>
<path fill="#17B59D" opacity="1.000000" stroke="none"
	d="
M1010.000488,182.890167
	C1008.991211,177.713470 1008.155884,172.924576 1006.917358,168.242325
	C1005.968140,164.653824 1006.452271,161.680267 1009.943542,160.150482
	C1013.476685,158.602341 1016.975281,160.552917 1017.954102,164.845795
	C1019.570068,171.933228 1020.706665,179.131348 1021.988586,186.292953
	C1022.708435,190.314468 1020.026184,192.462936 1016.869080,192.748978
	C1013.961853,193.012405 1011.198792,191.353363 1010.948242,187.562576
	C1010.853821,186.135056 1010.329407,184.735931 1010.000488,182.890167
z"/>
<path fill="#17B59D" opacity="1.000000" stroke="none"
	d="
M1174.313965,134.955338
	C1169.179810,134.281433 1164.518433,133.332642 1159.820801,133.089783
	C1155.510742,132.866974 1153.206543,130.470444 1153.293945,126.806587
	C1153.383423,123.061516 1156.001221,120.514633 1160.216553,121.031815
	C1167.481079,121.923088 1174.715454,123.057701 1181.976929,123.976112
	C1186.238159,124.515083 1186.077881,127.535095 1185.998657,130.609741
	C1185.909546,134.069656 1183.848999,135.117065 1180.747925,135.011520
	C1178.757690,134.943741 1176.763550,134.991959 1174.313965,134.955338
z"/>
<path fill="#17B59D" opacity="1.000000" stroke="none"
	d="
M493.264008,71.995636
	C488.126465,71.443077 489.036896,67.186081 488.113251,64.382141
	C486.548737,59.632774 485.760529,54.632320 484.301147,49.842487
	C482.611877,44.298237 484.691132,39.736019 489.401947,40.162613
	C491.275116,40.332237 494.120453,41.944008 494.579224,43.479919
	C496.753967,50.760212 498.458527,58.201481 499.926270,65.664909
	C500.839722,70.309715 498.450958,72.528061 493.264008,71.995636
z"/>
<path fill="#17B59D" opacity="1.000000" stroke="none"
	d="
M287.189026,193.960251
	C296.254547,193.238770 304.900909,192.371307 313.555420,192.280197
	C315.010315,192.264893 317.439087,195.488037 317.685150,197.433975
	C317.891510,199.065659 315.878204,201.396408 314.268097,202.703964
	C313.031555,203.708191 310.909637,203.806778 309.152191,203.950623
	C303.751617,204.392670 298.334290,204.929337 292.929016,204.875534
	C290.597900,204.852341 286.824341,204.017975 286.282501,202.580811
	C285.366974,200.152283 286.500610,196.951248 287.189026,193.960251
z"/>
<path fill="#17B59D" opacity="1.000000" stroke="none"
	d="
M501.392914,207.776245
	C498.617798,200.961273 500.281403,198.447586 507.009521,197.959320
	C513.338806,197.500015 519.635132,196.586380 525.964172,196.121567
	C529.311279,195.875732 532.233521,197.056244 532.946350,200.795868
	C533.627808,204.371170 532.009338,207.517029 528.508911,207.827576
	C520.002808,208.582184 511.430206,208.595016 502.882782,208.853714
	C502.487946,208.865677 502.077484,208.363266 501.392914,207.776245
z"/>
<path fill="#17B59D" opacity="1.000000" stroke="none"
	d="
M562.027710,190.999771
	C564.559143,190.665527 566.637146,190.213364 568.738647,190.028900
	C571.707703,189.768265 574.598206,190.021286 574.959778,193.883728
	C575.281372,197.317886 575.242554,200.497665 570.511353,201.187042
	C563.133240,202.262054 555.820557,203.779388 548.456848,204.963898
	C545.694763,205.408188 543.367920,204.417419 543.074707,201.309097
	C542.783386,198.219589 542.355713,194.807358 546.814148,193.960220
	C551.747009,193.022949 556.662048,191.991699 562.027710,190.999771
z"/>
<path fill="#17B59D" opacity="1.000000" stroke="none"
	d="
M334.003418,189.931976
	C341.204590,188.924606 347.962250,187.568909 354.764252,187.288147
	C356.434357,187.219208 358.974030,190.375900 359.827698,192.553833
	C361.106323,195.816010 359.294342,198.480499 355.703461,198.905930
	C348.373688,199.774338 340.998108,200.248337 333.656647,201.028503
	C329.601746,201.459427 327.376099,198.949463 327.252594,195.781540
	C327.117126,192.307083 329.288971,189.544189 334.003418,189.931976
z"/>
<path fill="#17B59D" opacity="1.000000" stroke="none"
	d="
M600.366943,194.291443
	C597.195007,195.263321 594.355896,196.709122 591.593323,196.575424
	C589.392334,196.468872 586.267944,194.934570 585.383606,193.134796
	C584.181458,190.688263 584.268860,186.752914 587.861023,185.725281
	C595.630676,183.502533 603.548157,181.771820 611.452087,180.055954
	C614.145264,179.471283 616.495911,180.490509 616.936829,183.588776
	C617.375488,186.671326 616.924500,189.690613 613.424438,190.771988
	C609.251221,192.061310 604.968323,192.995575 600.366943,194.291443
z"/>
<path fill="#17B59D" opacity="1.000000" stroke="none"
	d="
M895.973083,242.573563
	C891.350769,248.659775 887.844421,248.430634 884.580994,242.083939
	C881.037415,235.192474 878.611572,228.012619 878.947144,220.068558
	C879.096619,216.529495 880.538147,214.993423 884.078369,214.956360
	C887.503723,214.920471 889.420532,215.716736 890.151245,219.698868
	C891.224304,225.546997 893.359741,231.196854 894.966064,236.952515
	C895.440796,238.653687 895.657898,240.426758 895.973083,242.573563
z"/>
<path fill="#17B59D" opacity="1.000000" stroke="none"
	d="
M888.046509,94.000000
	C882.477173,94.333214 877.371582,94.560440 872.289001,95.033897
	C868.375305,95.398468 866.513916,92.783745 866.263550,89.897087
	C866.034485,87.254837 866.726379,83.759010 870.829651,83.653046
	C879.264832,83.435219 887.712036,83.057159 896.125610,83.416710
	C897.171082,83.461388 898.713013,87.573944 898.745667,89.820145
	C898.765625,91.192780 896.574402,93.232285 894.955017,93.828926
	C893.047913,94.531517 890.685364,93.997688 888.046509,94.000000
z"/>
<path fill="#17B59D" opacity="1.000000" stroke="none"
	d="
M1072.636475,129.828278
	C1068.154785,128.249802 1066.816895,124.796486 1068.310059,121.440643
	C1069.103882,119.656441 1072.618530,118.315704 1074.999634,118.152321
	C1081.464233,117.708694 1087.979614,118.042953 1094.474243,117.984314
	C1098.420410,117.948685 1100.915283,119.636482 1100.938843,123.707909
	C1100.961426,127.605881 1098.489136,128.948273 1094.803833,129.040070
	C1087.545776,129.220901 1080.293457,129.636261 1072.636475,129.828278
z"/>
<path fill="#17B59D" opacity="1.000000" stroke="none"
	d="
M1341.845947,167.680634
	C1343.229126,176.128922 1338.693115,177.389236 1332.123169,175.058884
	C1329.390747,174.089706 1326.611450,173.192200 1324.004517,171.945953
	C1321.045044,170.531082 1320.115967,168.118561 1320.917847,164.795425
	C1321.720703,161.469101 1324.033081,160.224136 1326.735229,161.117142
	C1331.855103,162.809097 1336.746948,165.190704 1341.845947,167.680634
z"/>
<path fill="#17B59D" opacity="1.000000" stroke="none"
	d="
M180.651413,192.000366
	C182.989304,192.451447 185.487000,192.321762 186.602966,193.500351
	C187.989182,194.964355 189.227142,197.820450 188.701691,199.505402
	C188.128784,201.342606 185.552292,203.626129 183.692963,203.775955
	C179.348953,204.125977 174.887054,203.497437 170.519485,202.915512
	C167.086761,202.458099 166.323013,199.557129 167.159500,196.934250
	C167.761002,195.048233 169.569061,192.713409 171.307953,192.214890
	C174.065277,191.424393 177.214645,192.001526 180.651413,192.000366
z"/>
<path fill="#FFFFFF" opacity="1.000000" stroke="none"
	d="
M1358.148071,99.029526
	C1344.740234,88.722206 1350.088013,73.840752 1360.040649,68.482697
	C1365.816040,65.373497 1374.441528,66.649109 1379.731934,71.237762
	C1385.068481,75.866417 1386.964355,83.051437 1384.632690,89.810776
	C1382.248169,96.723343 1376.003418,102.016327 1369.177124,101.844772
	C1365.604370,101.755005 1362.071533,100.069443 1358.148071,99.029526
z"/>
</svg>
